<?xml version="1.0" encoding="utf-8"?>
<!-- Generator: Adobe Illustrator 16.0.0, SVG Export Plug-In . SVG Version: 6.00 Build 0)  -->
<!DOCTYPE svg PUBLIC "-//W3C//DTD SVG 1.1//EN" "http://www.w3.org/Graphics/SVG/1.1/DTD/svg11.dtd">
<svg version="1.1" xmlns="http://www.w3.org/2000/svg" xmlns:xlink="http://www.w3.org/1999/xlink" x="0px" y="0px" width="783px"
	 height="397.5px" viewBox="63.5 0 783 397.5" enable-background="new 63.5 0 783 397.5" xml:space="preserve">
<g id="Layer_2">
	<polygon fill="#96F088" points="108.5,200.5 794.427,201.25 794.427,254.5 459.5,388.5 108.5,254.5 	"/>
</g>
<g id="Layer_1">
	<g display="none">
		<ellipse display="inline" fill="#A6FFFD" cx="102.481" cy="122.293" rx="67.224" ry="61.876"/>
		<ellipse display="inline" fill="#A6FFFD" cx="207.901" cy="99.376" rx="67.224" ry="61.876"/>
		<ellipse display="inline" fill="#A6FFFD" cx="93.314" cy="221.601" rx="67.224" ry="61.876"/>
		<ellipse display="inline" fill="#A6FFFD" cx="188.039" cy="229.239" rx="67.224" ry="61.877"/>
		<ellipse display="inline" fill="#A6FFFD" cx="313.32" cy="126.876" rx="67.224" ry="61.876"/>
		<ellipse display="inline" fill="#A6FFFD" cx="408.044" cy="99.376" rx="67.224" ry="61.876"/>
		<ellipse display="inline" fill="#A6FFFD" cx="502.77" cy="128.404" rx="67.224" ry="61.876"/>
		<ellipse display="inline" fill="#A6FFFD" cx="569.992" cy="116.181" rx="67.224" ry="61.876"/>
		<ellipse display="inline" fill="#A6FFFD" cx="657.078" cy="128.404" rx="67.224" ry="61.876"/>
		<ellipse display="inline" fill="#A6FFFD" cx="731.939" cy="152.849" rx="67.225" ry="61.876"/>
		<ellipse display="inline" fill="#A6FFFD" cx="808.331" cy="142.154" rx="67.224" ry="61.876"/>
		<ellipse display="inline" fill="#A6FFFD" cx="808.331" cy="246.045" rx="67.224" ry="61.878"/>
		<ellipse display="inline" fill="#A6FFFD" cx="832.776" cy="189.517" rx="67.224" ry="61.876"/>
		<ellipse display="inline" fill="#A6FFFD" cx="704.439" cy="255.212" rx="67.224" ry="61.878"/>
		<ellipse display="inline" fill="#A6FFFD" cx="618.882" cy="255.212" rx="67.224" ry="61.878"/>
		<ellipse display="inline" fill="#A6FFFD" cx="514.992" cy="230.767" rx="67.224" ry="61.878"/>
		<ellipse display="inline" fill="#A6FFFD" cx="417.211" cy="227.711" rx="67.225" ry="61.878"/>
		<ellipse display="inline" fill="#A6FFFD" cx="301.097" cy="252.156" rx="67.224" ry="61.878"/>
		<path display="inline" fill="#A6FFFD" d="M851.874,172.329c0,37.337-165.673,67.605-370.046,67.605
			c-204.371,0-370.043-30.269-370.043-67.605c0-37.338,165.672-67.605,370.043-67.605
			C686.201,104.723,851.874,134.99,851.874,172.329z"/>
		<path display="inline" fill="#A6FFFD" d="M30.009,234.819c0,0-5.364-12.07-7.712-14.754c-2.347-2.684-8.048-21.795-8.048-28.504
			c0-6.705,0.335-14.753,3.018-19.616c1.677-4.19,7.042-11.567,10.731-18.944c2.011-4.694,1.006-18.779,2.011-23.474
			c1.007-4.693,2.683-9.725,6.708-17.101c0.334-1.677,0-3.354,0-3.354h96.321v125.747H30.009z"/>
	</g>
	<path fill="#CC0000" d="M168.335,145.206c0,8.057-1.924,15.019-5.774,20.882c-3.268,4.923-7.342,8.415-12.22,10.475
		c3.133,1.342,5.684,3.557,7.654,6.646c1.969,3.088,2.955,6.379,2.955,9.871c0,8.684-4.633,15.04-13.898,19.066
		c-7.162,3.133-16.562,4.7-28.199,4.7c-10.027,0-20.792-0.829-32.294-2.485c-0.313-10.43-0.963-27.437-1.947-51.026
		c-0.671-12.666-1.678-30.034-3.021-52.101c8.503-1.655,19.27-2.483,32.294-2.483C150.184,108.75,168.335,120.9,168.335,145.206z"/>
	<path d="M138.793,189.721c0-5.192-3.716-7.788-11.146-7.788c-0.762,0-1.544,0.045-2.35,0.135l-0.403,16.447
		C134.16,198.918,138.793,195.987,138.793,189.721z"/>
	<path fill="#CC0000" d="M141.009,157.828c0-3.446-1.388-6.085-4.163-7.922c-2.507-1.655-5.797-2.438-9.87-2.35l-1.007,20.209
		C135.996,168.124,141.009,164.811,141.009,157.828z"/>
	<path fill="#5700FF" d="M254.878,214.358h-36.726l-2.484-8.928c-1.03,0.403-3.604,1.77-7.722,4.094
		c-2.642,1.703-5.572,3.963-8.795,6.783l-3.827-8.125c-0.762-1.611-1.857-3.871-3.29-6.781l-3.625,12.957h-19.471
		c2.864-11.054,7.295-29.293,13.294-54.716c3.669-17.01,6.736-33.146,9.198-48.411h40.351c1.253,7.027,4.677,23.389,10.273,49.081
		C245.144,173.741,249.417,191.758,254.878,214.358z M212.513,192.338c-0.761-2.373-2.104-6.22-4.028-11.548
		c-1.164-2.955-2.931-7.026-5.304-12.22c-1.03,2.596-2.642,6.848-4.834,12.757c-1.208,3.4-2.642,8.035-4.297,13.898
		c1.343,0,4.386-0.269,9.131-0.806C206.045,194.019,209.156,193.323,212.513,192.338z"/>
	<path fill="#82CC2B" d="M327.055,194.019c-0.448,1.791-1.277,5.168-2.486,10.137c-0.626,2.91-1.164,6.311-1.611,10.205h-60.761
		c-0.225-10.518-0.783-27.84-1.678-51.966c-0.582-12.354-1.635-29.408-3.156-51.162h46.596l-3.829,85.538
		c4.342,0,10.854-0.469,19.54-1.41C321.458,195.183,323.922,194.733,327.055,194.019z"/>
	<path fill="#FFC901" d="M403.271,111.232l-12.623,23.365c-3.402,6.401-7.991,15.353-13.764,26.855
		c-0.537,6.268-1.232,15.153-2.084,26.656c-0.268,6.133-0.716,14.881-1.343,26.25h-34.376c-0.179-5.547-0.581-14.433-1.208-26.652
		c-0.358-4.61-1.185-13.363-2.483-26.253c-2.327-4.789-6.221-12.555-11.682-23.297c-3.536-6.534-8.685-15.51-15.442-26.924h49.55
		c0.806,2.911,2.214,7.499,4.228,13.766l6.446,18.127c1.701-4.118,4.006-10.205,6.917-18.262c0.982-3.178,2.259-7.723,3.826-13.631
		H403.271z"/>
	<path fill="#4204BA" d="M473.729,214.358h-36.725l-2.484-8.928c-1.029,0.403-3.604,1.77-7.72,4.094
		c-2.643,1.703-5.574,3.963-8.798,6.783l-3.825-8.125c-0.763-1.611-1.858-3.871-3.291-6.781l-3.625,12.957H387.79
		c2.863-11.054,7.296-29.293,13.292-54.716c3.671-17.01,6.738-33.146,9.2-48.411h40.351c1.253,7.027,4.678,23.389,10.273,49.081
		C463.996,173.741,468.27,191.758,473.729,214.358z M431.365,192.338c-0.762-2.373-2.105-6.22-4.027-11.548
		c-1.166-2.955-2.934-7.026-5.306-12.22c-1.03,2.596-2.642,6.848-4.835,12.757c-1.208,3.4-2.641,8.035-4.297,13.898
		c1.343,0,4.387-0.269,9.132-0.806C424.896,194.019,428.009,193.323,431.365,192.338z"/>
	<path fill="#CC0000" d="M578.419,116.604c-2.462,4.565-7.499,14.191-15.106,28.871c-4.164,8.102-9.894,18.912-17.188,32.43
		c0.626,0.984,4.252,5.126,10.877,12.42c3.896,4.163,9.424,9.468,16.585,15.913c-2.998,1.299-7.9,3.402-14.705,6.313
		c-3.805,1.701-9.152,4.184-16.045,7.45c-1.701-2.06-5.191-6.868-10.474-14.433c-2.954-4.477-5.8-9.243-8.528-14.303h-0.27
		l-0.672,23.096h-37.127l-1.813-53.643c-0.491-11.728-1.544-28.223-3.154-49.484h46.729l-2.621,45.252h0.472
		c1.88-5.28,4.9-13.986,9.063-26.116c1.7-5.281,3.896-12.533,6.579-21.753l19.003,4.162
		C566.199,114.121,572.331,115.395,578.419,116.604z"/>
	<path fill="#F9C900" d="M662.795,193.606l-36.307,5.307l-3.312-4.784c-0.979,0.381-3.396,1.539-7.241,3.476
		c-2.446,1.361-5.125,3.088-8.041,5.176l-4.566-4.127c-0.905-0.818-2.207-1.961-3.901-3.43l-2.336,7.986l-19.247,2.814
		c1.769-6.782,4.396-17.931,7.881-33.443c1.993-10.327,3.473-20.065,4.438-29.216l39.893-5.831
		c1.911,3.868,6.867,12.798,14.868,26.791C649.266,171.615,655.225,181.375,662.795,193.606z M618.796,187.041
		c-0.979-1.255-2.675-3.278-5.089-6.069c-1.438-1.534-3.573-3.625-6.418-6.272c-0.768,1.643-1.952,4.326-3.552,8.046
		c-0.87,2.134-1.839,5.013-2.911,8.629c1.326-0.194,4.309-0.79,8.949-1.784C612.568,188.944,615.575,188.094,618.796,187.041z"/>
	<path fill="#F9C900" d="M749.482,212.756l-35.631-8.519l-1.029-5.614c-1.063-0.013-3.771,0.16-8.124,0.519
		c-2.826,0.35-6.017,0.944-9.58,1.788l-2.459-5.475c-0.49-1.085-1.204-2.614-2.147-4.588l-5.515,6.472l-18.889-4.516
		c4.482-5.575,11.595-14.843,21.333-27.8c6.181-8.75,11.641-17.148,16.384-25.19l39.147,9.358
		c0.133,4.256,0.929,14.285,2.396,30.086C746.297,187.571,747.669,198.731,749.482,212.756z M711.773,190.5
		c-0.372-1.517-1.084-4-2.125-7.453c-0.677-1.938-1.763-4.646-3.264-8.127c-1.396,1.227-3.615,3.252-6.654,6.08
		c-1.698,1.639-3.802,3.924-6.313,6.849c1.305,0.313,4.299,0.865,8.985,1.663C705.244,189.948,708.367,190.276,711.773,190.5z"/>
	<path fill="#3100C9" d="M820.056,194.019c-0.447,1.791-1.273,5.168-2.482,10.137c-0.627,2.91-1.164,6.311-1.61,10.205h-60.764
		c-0.225-10.518-0.782-27.84-1.677-51.966c-0.582-12.354-1.637-29.408-3.157-51.162h46.596l-3.826,85.538
		c4.342,0,10.854-0.469,19.536-1.41C814.46,195.183,816.922,194.733,820.056,194.019z"/>
	<g>
		<path fill="#FFFF00" d="M597.248,235.937c10.527,7.623,21.566,13.928,33.219,18.443c11.623,4.528,23.803,7.273,36.053,7.786
			c12.244,0.513,24.535-1.263,36.181-5.453c11.682-4.142,22.579-10.708,32.831-18.699c-7.545,10.601-17.979,19.414-30.092,25.226
			c-12.101,5.832-25.81,8.517-39.295,7.916c-13.504-0.565-26.748-4.268-38.582-10.348
			C615.744,254.703,605.196,246.262,597.248,235.937z"/>
	</g>
	<path fill="#A6FFFD" d="M143.495,188.389c0.086-0.145,0.148-0.319,0.173-0.534c0.13-1.141,0.016-2.188-0.242-3.188
		c0.044-0.146,0.067-0.294,0.051-0.453c-0.174-1.608-0.886-2.986-1.815-4.289c-0.16-0.224-0.367-0.4-0.597-0.518
		c-0.237-0.457-0.471-0.922-0.69-1.396c-0.151-0.33-0.368-0.529-0.612-0.635c-0.34-0.424-0.718-0.833-1.141-1.216
		c-2.58-2.341-6.682-3.433-10.095-2.83c-0.897-0.088-1.785,0.012-2.682,0.21c-0.317,0.068-0.567,0.273-0.741,0.533
		c-0.218,0.021-0.441,0.012-0.679-0.057c-0.224-0.064-0.43-0.074-0.616-0.046c-0.007-0.166-0.021-0.332-0.042-0.498
		c-0.019-0.166-0.046-0.331-0.079-0.493c0.137,0.371,0.172-0.396,0.044-0.771c-0.036-0.125-0.067-0.203,0.053-0.971
		c0,0,0.058-0.24,0.117-0.48c0.059-0.241,0.117-0.482,0.117-0.482c0.055-0.229,0.071-0.459,0.052-0.683
		c-0.018-0.224-0.071-0.442-0.152-0.649c-0.048-0.053-0.048-1.58,0.138-1.959c0.045-0.139,0.103-0.289,0.174-0.467
		c0.071-0.179,0.158-0.383,0.262-0.629c0.055-0.109,0.102-0.225,0.14-0.343c0.039-0.118,0.069-0.239,0.091-0.363
		c0.222-0.434,0.315-0.929,0.239-1.411c0.119-0.49,0.092-1-0.123-1.461c0.02,0.002,0.039,0.004,0.058,0.01
		c0.054,0.015,0.104,0.033,0.159,0.047c0.02,0.004,0.037,0.004,0.057,0.009c0.067,0.104,0.168,0.19,0.324,0.228l0.412,0.102
		c0.049,0.011,0.089,0.006,0.134,0.008c0.274,0.119,0.657,0.018,0.789-0.297c0.413-0.042,0.788-0.24,1.04-0.684
		c0.074-0.129,0.082-0.252,0.06-0.365c0.025-0.034,0.054-0.064,0.076-0.101c0.895-0.213,1.727-0.813,2.013-1.679
		c0.545-0.007,0.732-0.801,0.239-1.048c0.012-0.037,0.025-0.07,0.039-0.106c0.313-0.1,0.459-0.486,0.336-0.779
		c0.397-0.754,0.929-1.437,1.341-2.24c0.904-1.764,0.803-3.852-0.151-5.576c-1.155-2.084-2.8-3.55-5.105-4.207
		c-1.183-0.338-2.479-0.109-3.56,0.42c-0.046,0.021-0.089,0.05-0.134,0.074c-1.388-0.309-3.073,0.625-3.411,2.033
		c-0.542,0.809-0.599,1.873-0.198,2.763c-0.125,0.196-0.236,0.399-0.321,0.617c-0.162,0.348-0.242,0.702-0.256,1.053
		c-0.007,0.176-0.023,0.349,0.031,1.037c-0.008,0.06,0.017,0.129-0.005,0.233c-0.061,0.313-0.021,0.612,0.101,0.884
		c-0.074,0.278,0.033,0.604,0.394,0.69c0.073,0.019,0.138,0.016,0.201,0.008c0.069,0.41,0.212,0.771,0.408,1.084
		c-0.323,0.295-0.633,0.602-0.939,0.912c-0.718-0.052-1.298,0.229-1.698,0.682c-0.264,0.129-0.493,0.313-0.679,0.539
		c-0.004,0.003-0.01,0.006-0.014,0.007c-0.357,0.245-0.645,0.515-0.92,0.827c-0.3,0.111-0.577,0.287-0.797,0.541
		c-0.109,0.129-0.231,0.24-0.354,0.354c-0.15,0.102-0.303,0.196-0.455,0.292c-0.058,0.034-0.106,0.079-0.158,0.118
		c-0.309,0.109-0.59,0.289-0.809,0.557c-0.218,0.266-0.416,0.545-0.614,0.823c-0.012,0.015-0.022,0.027-0.033,0.041
		c-0.091,0.111-0.174,0.226-0.249,0.341c-0.319,0.111-0.615,0.29-0.843,0.561c-0.264,0.312-0.535,0.613-0.835,0.888
		c-0.013,0.011-0.028,0.022-0.043,0.032c-0.14,0.089-0.265,0.191-0.38,0.304c-0.438,0.125-0.801,0.394-1.066,0.74
		c-0.133,0.173-0.245,0.36-0.371,0.511c-0.06,0.242-1.588,1.77-1.484,1.54c-0.235,0.138-0.439,0.306-0.618,0.493
		c-1.069,1.128-1.235,3.008-1.897,3.65c-0.126,0.199-0.223,0.42-0.276,0.662c-0.245,1.082-0.3,2.197-0.101,3.279
		c-0.266,0.514-0.337,1.137-0.216,1.755c0.293,1.519,0.632,3.019,0.701,4.568c0.014,0.329,0.091,0.611,0.207,0.861
		c0,0.057,0.003,0.117,0.014,0.18c0.387,2.197,0.798,4.201,0.38,6.427c-0.298,1.582-0.892,3.028-0.975,4.655
		c-0.113,2.242,1.672,3.738,3.557,4.541c0.074,0.244,0.262,0.456,0.588,0.535l0.689,0.166c0.06,0.016,0.118,0.022,0.173,0.024
		c0.035,0.015,0.063,0.034,0.102,0.043c0.449,0.107,0.898,0.183,1.361,0.151c0.381-0.024,0.698-0.283,0.792-0.637
		c0.019-0.021,0.044-0.043,0.063-0.067c0.555-0.08,0.827-0.735,0.625-1.21c0.042-0.225,0.04-0.479-0.019-0.766
		c-0.267-1.306-1.368-1.861-2.367-2.606c-0.067-0.134-0.153-0.259-0.252-0.377c-0.209-0.597,0.08-1.599,0.571-2.483
		c0.618-0.188,1.077-0.652,1.329-1.221c0.054-0.109,0.113-0.203,0.631-0.388c0.159-0.031,0.309-0.081,0.448-0.146
		c0.002,0,0.003,0,0.007,0c0.454,0.946,1.645,1.54,2.869,1.91c0.468,0.38,0.958,0.729,1.476,1.03
		c0.081,0.048,0.161,0.076,0.239,0.096c0.388,1.714,1.575,3.2,2.66,4.52c0.105,0.127,0.217,0.218,0.332,0.293
		c1.234,1.961,3.674,2.776,5.813,3.408c3.313,0.978,6.208,1.241,9.532,0.236c0.209-0.063,0.38-0.156,0.519-0.273
		c0.138-0.115,0.242-0.254,0.316-0.405c1.179-0.591,1.179-0.591,1.859-1.669c0.161-0.189,0.322-0.379,0.483-0.567
		c1.446-1.7,2.853-3.405,3.681-5.454c0.28-0.166,0.508-0.438,0.611-0.847C143.357,190.397,143.606,189.374,143.495,188.389z
		 M116.386,187.841c-0.298-0.119-0.567-0.3-0.839-0.48c-0.126-0.084-0.257-0.161-0.387-0.235c0.115-0.132,0.195-0.306,0.212-0.519
		c0.022-0.276,0.089-0.553,0.178-0.818c0.368,0.275,0.741,0.546,1.112,0.814C116.594,187.024,116.514,187.44,116.386,187.841z
		 M121.117,176.097c-1.065,0.56-2.1,1.149-2.947,1.964c-0.195-0.559-0.313-1.15-0.384-1.72c0.106-0.073,0.203-0.166,0.282-0.276
		c0.154-0.213,0.333-0.402,0.525-0.578c0.248,0.016,0.495,0.027,0.744,0.039c0.216,0.009,0.411-0.088,0.558-0.237
		c0.009-0.004,0.021-0.004,0.029-0.009c0.05,0.024,0.147,0.067,0.168,0.08c0.02,0.013,0.035,0.022,0.045,0.028
		c0.03,0.027,0.059,0.052,0.084,0.078c0.008,0.009,0.007,0.006,0.013,0.015c0.041,0.072,0.045,0.074,0.024,0.023
		c0,0,0,0.001,0.001,0.001c0.155,0.363,0.477,0.618,0.864,0.588C121.123,176.095,121.12,176.095,121.117,176.097z"/>
	<rect x="94.333" y="226.555" fill="none" width="515.383" height="56.02"/>
	
		<text transform="matrix(1 0 0 1 94.333 245.4629)" display="none" fill="#CC0000" enable-background="new    " font-family="'ArialMT'" font-size="25.9728">International Montessori Pre-School</text>
	<g>
		<path fill="#FFFFFF" d="M37.294,107.779c5.713-8.736,12.865-16.638,21.477-22.655c8.588-6.024,18.626-9.992,29.043-11.455
			c10.424-1.506,21.091-0.636,31.313,1.735c10.245,2.381,20.108,6.191,29.527,10.81l-0.591-0.037
			c-0.221,0.098-0.142,0.085-0.148,0.074l0.063-0.065l0.168-0.193l0.354-0.441l0.712-0.926l1.433-1.878
			c0.962-1.251,1.94-2.493,2.941-3.717c2-2.449,4.087-4.833,6.268-7.129c4.362-4.59,9.103-8.85,14.294-12.527
			c5.186-3.671,10.839-6.763,16.901-8.831c6.049-2.077,12.512-3.073,18.934-2.73c6.424,0.326,12.742,1.973,18.595,4.556
			c5.866,2.58,11.29,6.045,16.282,9.99c9.985,7.935,18.351,17.631,25.758,27.872l-1.72-0.329
			c6.189-3.967,12.498-7.897,19.333-10.929c6.806-3.04,14.225-5.042,21.777-5.225c7.55-0.225,15.05,1.286,22.071,3.803
			c7.039,2.522,13.665,5.986,19.967,9.882l-1.811-1.119l2.438,2.527c-3.163-3.278-2.191-0.132-2.396-1.125l-0.021,0.027l0.019-0.027
			l0.067-0.098l0.15-0.225l0.31-0.465l0.632-0.933l1.296-1.846c0.878-1.221,1.783-2.42,2.713-3.6c1.86-2.359,3.82-4.639,5.879-6.83
			c4.118-4.378,8.633-8.41,13.574-11.888c4.938-3.473,10.317-6.386,16.06-8.4c5.733-2.02,11.829-3.104,17.932-3.072
			c6.104,0.018,12.178,1.144,17.916,3.111c5.749,1.965,11.173,4.741,16.241,8.001c10.133,6.571,18.856,14.965,26.705,23.957
			l-2.089-0.118c3.953-3.612,8.626-6.346,13.559-8.264c4.938-1.921,10.144-3.056,15.384-3.529c5.244-0.469,10.541-0.291,15.74,0.568
			c5.19,0.872,10.327,2.393,15.032,4.975l0.014,0.007l0.085,0.053c-0.336-0.208-0.525-0.155-0.551-0.158
			c-0.021,0.001,0.022-0.004,0.088-0.028c0.135-0.045,0.335-0.139,0.533-0.245c0.405-0.215,0.839-0.481,1.271-0.755l2.635-1.728
			c1.773-1.174,3.583-2.335,5.437-3.425c3.703-2.188,7.593-4.107,11.646-5.622c8.096-3.052,16.912-4.355,25.558-3.538
			c8.656,0.779,17.018,3.574,24.635,7.555c7.641,3.985,14.602,9.101,20.998,14.768l-0.844-0.319c-0.41,0.03-0.326,0.062-0.359,0.057
			l0.036-0.016l0.145-0.066l0.339-0.166l0.708-0.355l1.44-0.715c0.967-0.472,1.939-0.931,2.923-1.372
			c1.964-0.88,3.956-1.698,5.975-2.45c4.035-1.502,8.172-2.743,12.382-3.672c8.411-1.859,17.168-2.459,25.752-1.268
			c8.577,1.169,16.904,4.204,24.201,8.84c7.322,4.616,13.602,10.708,18.862,17.486l-1.091-0.286
			c0.396-0.188,0.976-0.459,1.464-0.667c0.511-0.22,1.024-0.426,1.544-0.622c1.035-0.392,2.085-0.737,3.146-1.046
			c2.119-0.615,4.278-1.079,6.456-1.398c4.357-0.641,8.786-0.71,13.154-0.269c8.754,0.874,17.188,3.805,24.857,7.951l0.097,0.052
			l0.079,0.078c-0.099-0.097-0.194-0.085-0.145-0.083c0.036,0.003,0.145-0.023,0.243-0.053c0.217-0.071,0.466-0.188,0.712-0.316
			c0.497-0.261,1-0.574,1.499-0.893c0.999-0.644,1.994-1.327,2.993-2.003c1.998-1.357,4.02-2.701,6.086-3.974
			c4.129-2.551,8.438-4.835,12.931-6.696c8.966-3.746,18.729-5.713,28.448-5.298c9.725,0.367,19.251,3.067,27.956,7.266
			c8.723,4.217,16.678,9.851,23.96,16.173c-7.382-6.206-15.415-11.701-24.157-15.756c-8.71-4.071-18.183-6.63-27.786-6.876
			c-9.6-0.294-19.185,1.757-27.975,5.551c-4.405,1.886-8.626,4.188-12.677,6.757c-2.028,1.283-4.013,2.636-5.989,4.014
			c-0.991,0.688-1.979,1.383-2.999,2.059c-0.515,0.336-1.031,0.669-1.6,0.977c-0.287,0.152-0.582,0.301-0.938,0.424
			c-0.188,0.057-0.373,0.118-0.64,0.132c-0.246,0.017-0.665-0.034-0.98-0.347l0.175,0.13c-7.561-4.014-15.813-6.811-24.313-7.598
			c-4.242-0.399-8.528-0.3-12.729,0.347c-4.215,0.665-8.276,1.799-12.156,3.7l-0.624,0.306l-0.466-0.592
			c-5.203-6.604-11.362-12.487-18.479-16.904c-7.095-4.437-15.131-7.299-23.416-8.372c-8.291-1.091-16.767-0.457-24.933,1.409
			c-4.088,0.933-8.107,2.168-12.03,3.661c-1.961,0.747-3.898,1.557-5.81,2.429c-0.953,0.436-1.903,0.883-2.847,1.347l-1.414,0.706
			l-0.716,0.361l-0.377,0.186l-0.218,0.101l-0.147,0.062c-0.096,0.018-0.074,0.074-0.551,0.112l-0.441,0.036l-0.401-0.355
			c-6.291-5.547-13.105-10.522-20.514-14.364c-7.39-3.838-15.42-6.49-23.674-7.213c-8.244-0.758-16.612,0.495-24.362,3.434
			c-3.883,1.46-7.617,3.313-11.202,5.442c-1.796,1.062-3.554,2.194-5.31,3.362l-2.675,1.763c-0.462,0.293-0.93,0.585-1.46,0.869
			c-0.27,0.141-0.545,0.282-0.911,0.413c-0.184,0.063-0.396,0.129-0.681,0.167c-0.284,0.025-0.756,0.065-1.318-0.288l0.098,0.06
			c-4.332-2.368-9.203-3.815-14.146-4.63c-4.952-0.806-10.021-0.966-15.022-0.506c-5,0.462-9.943,1.558-14.594,3.379
			c-4.644,1.818-8.991,4.386-12.634,7.729l-1.101,1.011l-0.988-1.128c-7.74-8.837-16.323-17.015-26.126-23.362
			c-4.894-3.164-10.101-5.838-15.575-7.724c-5.469-1.888-11.21-2.962-16.973-2.993c-5.763-0.042-11.517,0.964-16.969,2.87
			c-5.461,1.901-10.617,4.672-15.382,8.006c-4.768,3.339-9.155,7.235-13.169,11.483c-2.007,2.126-3.921,4.342-5.737,6.634
			c-0.908,1.146-1.792,2.312-2.647,3.497l-1.264,1.791l-0.616,0.907l-0.308,0.459l-0.159,0.237l-0.091,0.131l-0.062,0.086
			l-0.063,0.082c-0.216-0.982,0.73,2.207-2.438-1.096l0.628,1.407c-6.173-3.837-12.634-7.227-19.427-9.677
			c-6.779-2.448-13.93-3.894-21.089-3.697c-7.162,0.159-14.207,2.03-20.8,4.954c-6.615,2.914-12.834,6.758-19.007,10.697
			l-1.017,0.648l-0.704-0.978c-7.292-10.127-15.433-19.748-25.132-27.546c-4.843-3.882-10.085-7.278-15.726-9.806
			c-5.63-2.53-11.674-4.146-17.823-4.502c-6.146-0.371-12.349,0.537-18.206,2.501c-5.867,1.956-11.39,4.919-16.486,8.475
			c-5.102,3.561-9.793,7.714-14.125,12.209c-2.166,2.249-4.242,4.587-6.236,6.995c-0.998,1.204-1.975,2.425-2.938,3.66l-1.441,1.862
			l-0.732,0.938l-0.388,0.476l-0.221,0.25l-0.144,0.144c-0.08,0.055-0.075,0.109-0.386,0.246l-0.275,0.122l-0.316-0.158
			c-9.301-4.653-19.014-8.559-29.122-11.021c-10.084-2.46-20.608-3.438-30.925-2.067c-10.308,1.33-20.288,5.136-28.887,11.023
			C50.4,91.364,43.14,99.129,37.294,107.779z"/>
	</g>
	<path fill="#FFE5A4" d="M428.192,199.787c0,1.391,17.072-9.64,17.188-9.729c2.2-1.707,2.864-2.229,4.9-3.947
		c1.803-1.521,2.368-2.113,4.584-3.597c0.156-0.104,1.561-0.991,1.654-1.114c0.271-0.082,0.47-0.327,0.604-0.54
		c0.055-0.024,0.97-0.781,1.018-0.828c1.813-1.762,1.593-1.596,2.962-3.086c0.184-0.201,0.888-0.316,0.923-0.534
		c0.376,0.047,0.774-0.039,1.061-0.308c1.558-1.443,2.073-3.028,2.396-5.086c0.282-1.813,1.145-3.309,2.115-4.766
		c-0.102,0.947-0.054,1.87,0.083,2.785c0.026,0.183,0.046,0.363,0.046,0.542c-0.099,0.84-0.099,2.368-0.729,3.183
		c-0.092,0.172-0.214,0.323-0.33,0.469c-0.703,0.873-0.925,1.534-1.184,2.903c-0.026,0.033-0.246,0.907-0.274,0.938
		c-0.049,0.063-0.146,0.841-0.182,0.904c-0.121,1.229-0.276,1.658-0.313,2.062c-0.281,3.033,1.432,7.208,3.95,9.695
		c-0.007,0.006-0.014,0.014-0.021,0.018c-2.397,2.09-5.141,4.372-6.985,7.046c-0.142,0.206-0.291,0.394-0.455,0.56
		c0.055,0.189-0.151,0.42-0.463,0.539c-0.318,0.112-0.651,0.199-0.552,0.373c-0.17,0.115-0.362,0.215-0.563,0.308
		c-0.999,0.465-2.026,0.868-3.032,1.323c-1.786,0.807-3.144,2.416-4.671,3.58c-0.583,0.442-0.948,1.412-0.255,1.976
		c0.333,0.272,0.688,0.487,1.054,0.668c-0.272,0.575-0.118,1.239,0.46,1.624c3.028,2.031,4.643,5.119,8.475,5.788
		c1.135,0.196,1.891-0.808,1.421-1.847c-0.374-0.83-1.073-1.612-1.418-2.387c0.785-1.611,1.512-3.166,2.896-4.476
		c0.814-0.771,1.699-1.466,2.593-2.156c0.675-0.332,1.309-0.632,1.883-0.872c0.447-0.188,0.68-0.543,0.772-0.929
		c1.96-1.171,3.706-2.534,5.304-4.211c0.007,1.852-0.102,3.938,0.169,5.87c0.032,0.242,0.071,0.48,0.105,0.715
		c0.025,0.232-0.034,0.451-0.048,0.683c-0.034,0.205-0.025,0.425-0.087,0.669c-0.063,0.243-0.083,0.514-0.051,0.809
		c0.093,0.828,0.157,1.658,0.215,2.488c0.016,0.209,0.028,0.416,0.044,0.623c0.012,0.207,0.028,0.414,0.043,0.622
		c-0.318,0.433-0.508,0.966-0.512,1.511c-0.055,4.61,5.552,4.213,8.636,3.471c0.239-0.059,0.458-0.159,0.656-0.287
		c0.166,0.094,0.348,0.164,0.562,0.17c1.664,0.031,3.812,0.393,4.651-1.462c0.251-0.56,0.223-1.433-0.455-1.722
		c-1.258-0.537-2.575-0.924-3.869-1.365c-0.186-0.063-0.371-0.126-0.937-1.358c0.029-0.297,0.059-0.581,0.084-0.854
		c0.024-0.271,0.044-0.53,0.054-0.774c0.01-0.242,0.014-0.469,0.016-0.678c0.052-0.226,0.052-1.753,0.222-1.478
		c0.032-0.119,0.104-0.246,0.167-0.382c0.186-0.405,0.281-0.89,0.259-1.456c-0.001-0.041-0.014-0.082-0.019-0.125
		c0.158-0.322,0.257-0.693,0.246-1.136c-0.004-0.185,0.005-0.362,0.019-0.533c0.013-0.171,0.027-0.338,0.152-1.954
		c0.014-0.162,0.009-0.324,0.028-0.488c0.037-0.33,0.058-0.666,0.094-0.99c0.249-2.124,0.211-3.275-0.027-4.868
		c0.012-2.095-0.117-2.707-0.78-5.019c-0.033-0.115-0.129-0.17-0.182-0.268c0.101-1.849,0.191-3.708-0.118-5.431
		c-0.04-0.216-0.084-0.43-0.138-0.641c0.129-2.961,0.129-4.488-0.241-6.963c0.049-0.197,0.089-0.396,0.12-0.595
		c0.102-0.599,0.136-1.208,0.112-1.824c-0.008-0.229-0.021-0.458-0.045-0.688c0.183-2.06,0.183-5.114,0.917-6.597
		c0.021-0.186,0.047-0.381,0.063-0.586c0.12-0.358,0.211-0.736,0.236-1.131c0.015-0.281-0.025-0.535-0.025-0.811
		c0.03-0.161,0.073-0.329,0.1-0.491c0.11-0.726,0.021-1.375-0.186-1.96c-0.009-0.645-0.013-1.286-0.1-1.979
		c-0.184-1.509-0.933-2.842-2.215-3.439c-0.026-0.037-0.046-0.081-0.072-0.118c-0.053-0.149-0.104-0.292-0.155-0.444
		c-0.23-0.639-0.379-1.291-0.498-1.955c1.722,0.762,3.724,0.608,5.206-0.738c1.438-1.311,1.656-3.401,2.233-4.77
		c2.527-2.508,3.831-6.156,2.188-9.548c-2.25-4.63-9.147-6.308-13.492-3.887c-3.283,1.831-6.396,8.196-4.445,11.958
		c-0.02,1.141,0.125,2.288,0.25,3.509c0.102,0.972-0.698,1.974-1.67,2.888c-0.213,0.088-0.417,0.221-0.574,0.461
		c-0.762,1.153-2.917,1.303-3.995,2.262c-0.193,0.171-0.349,0.365-0.474,0.574c-0.478,0.502-0.478,0.502-1.29,2.008
		c-0.078,0.17-0.188,0.335-0.303,0.504c-0.57,0.843-0.999,1.803-1.303,2.779c-0.079,0.252-0.129,0.506-0.174,0.765
		c-0.557,1.165-1.402,2.184-1.787,3.422c-0.222,0.722-0.327,1.458-0.396,2.201c-0.118,0.13-0.215,0.278-0.26,0.461
		c-0.724,2.963-2.021,5.622-2.144,8.72c-0.004,0.104,0.037,0.174,0.054,0.266c-0.782,1.451-1.417,2.519-2.946,3.488
		c-0.157,0.098-0.74,0.604-0.827,0.731c-0.235,0.088-0.979,0.628-1.104,0.819c-1.221,1.026-1.646,1.309-1.729,1.376
		c-2.938,2.405-1.41,1.239-2.938,2.405c-1.88,1.433-2.268,2.427-4.286,3.705c0,0-1.145,0.952-1.146,0.955
		c-0.104,0.026-1.807,1.463-1.909,1.528c-3.333,2.111-3.333,2.111-7.959,4.583c-10.304,5.504-8.088,4.62-6.493,5.475
		L428.192,199.787z"/>
	<path fill="#C7ADF7" d="M238.264,145.418c-2.102-3.672-2.015-8.066,1.888-10.422c4.152-2.506,10.459-1.988,13.597,1.781
		c0.061,0.069,0.13,0.125,0.172,0.207c0.14,0.182,0.312,0.328,0.437,0.521c2.074,3.214,2.146,8.139,0.093,11.484
		c0.051,0.227,0.039,0.477-0.119,0.753c-0.354,0.62-0.563,1.017-1.2,1.379c-0.245,0.139-0.467,0.159-0.676,0.133
		c0.227,0.274,0.429,0.577,0.673,0.833c0.098,0.027,0.175,0.07,0.266,0.102c1.327-0.334,2.643-0.711,3.95-1.117
		c0.068-0.344,0.271-0.662,0.687-0.848c4.601-2.065,7.583-4.763,9.323-9.56c0.017-0.044,0.064-0.068,0.086-0.11
		c-1.36-4.398-2.238-8.833-2.235-13.493c0.008-6.14,2.014-12.865,0.072-18.813c-0.047,0.031-0.095,0.067-0.14,0.091
		c-1.063,0.544-1.805-0.529-1.649-1.457c-0.248-0.074-0.488-0.189-0.667-0.388c-0.487-0.54-0.987-1.075-1.491-1.61
		c-0.367-0.043-0.701-0.259-0.858-0.743c-0.026-0.081-0.042-0.163-0.067-0.243c-0.658-0.698-1.31-1.399-1.947-2.107
		c-0.268-0.044-0.538-0.181-0.772-0.445c-0.635-0.712-1.121-1.499-1.535-2.319c-2.548-3.383-4.235-7.136-3.405-11.914
		c0.796-4.576,5.766-7.614,10.178-7.428c5.95,0.25,8.694,4.194,9.206,9.782c0.398,4.345-0.122,8.729-2.181,12.591
		c-0.55,1.031-1.302,2.394-2.175,3.627c0.876,0.388,0.988,1.799,0.063,2.248c1.119,3.809,0.766,7.688,0.314,11.717
		c-0.831,7.398-0.329,14.32,2.042,21.402c0.077,0.234,0.072,0.45,0.036,0.65c0.711-0.377,1.727-0.166,1.799,0.859
		c0.131,1.899,0.768,3.723,1.497,5.469c0.623,1.494-1.683,2.479-2.308,0.99c-0.32-0.771-0.615-1.568-0.879-2.377
		c-0.121,0.313-0.256,0.62-0.424,0.916c-0.47,1.072-1.199,2-1.915,2.936c-0.191,0.249-0.425,0.365-0.664,0.426
		c-0.043,0.107-0.091,0.215-0.183,0.322c-2.403,2.769-5.765,3.927-8.79,5.834c-0.112,0.07-0.224,0.094-0.338,0.13
		c-0.008,0.011-0.007,0.022-0.014,0.036c-0.146,0.177-0.267,0.371-0.355,0.583c-0.018,0.038-0.044,0.054-0.063,0.086
		c1.208,1.993,2.062,4.534,2.977,8.368c0.21,0.884,0.385,1.779,0.575,2.671c0.021,0.006,0.041,0.003,0.058,0.014
		c0.432,0.205,0.815,0.372,1.024,0.831c0.057,0.107,0.078,0.232,0.125,0.343c0.506-0.155,1.009-0.311,1.512-0.469
		c1.146-0.354,2.171,0.851,1.591,1.781c0.224,0.139,0.348,0.251,0.292,0.303c0.742-0.665,1.86-0.06,2.015,0.815
		c0.273,1.56,0.104,4.033-2.267,3.58c-0.993-0.19-1.793-0.385-2.542-0.766c-0.18,0.775-0.256,1.6-0.257,2.449
		c0.22,1.605,0.412,3.218,0.574,4.835c0.404,1.952,0.912,3.822,1.208,5.35c0.985,5.12-1.563,11.971,0.333,17.092
		c0.637,1.719,1.058,1.797,1.655,2.737c0.7,1.019,3.262,2.281,3.565,2.992c0.372,0.875-0.469,3.347-1.719,3.517h-1.4
		c-1.209,0,0.319,0-1.209,0c-0.247,0-0.464-0.051-0.637-0.207c-1.272,0.638-1.398-0.148-2.869,0.207
		c-2.139,0.535-6.04,0.441-8.191,0.918c-4.171,0.955-6.135-3.063-5.197-6.314c-0.007-0.216-0.024-0.432-0.007-0.645
		c0.252-3.184-2.653-6.468-3.083-9.621c-0.681-4.984-0.879-9.993-1.439-14.99c-1.125-10.036-3.266-18.851-2.851-29.114
		c0.029-0.71,0.286-1.374,0.669-1.969c-0.258-0.926-0.182-1.74,0.162-2.438c-0.11-0.281-0.233-0.562-0.367-0.839
		C240.434,148.339,239.181,147.02,238.264,145.418z"/>
	<path fill="#FFE5A4" d="M414.41,199.767l6.083,11.33c0,0,8.896-6.332,12.505-7.511l-3.245-7.194L414.41,199.767z"/>
	<circle fill="#FFE5A4" cx="423.131" cy="209.759" r="1.463"/>
	<circle fill="#FFE5A4" cx="430.771" cy="205.176" r="1.464"/>
	<path fill="#C7ADF7" d="M792.798,174.925c0.337-1.628,0.817-3.295,1.629-4.755c0.347-0.622,0.853-1.189,1.438-1.586
		c-0.008-0.072-0.01-0.145-0.01-0.216c0-0.229,0.043-0.447,0.119-0.652c-0.018-0.05-0.037-0.101-0.053-0.153
		c-0.134-0.492-0.064-1.028,0.194-1.47c0.088-0.151,0.198-0.287,0.325-0.407c0.051-0.094,0.109-0.183,0.175-0.267
		c0.378-0.678,0.913-1.285,1.469-1.774c0.302-0.266,0.617-0.511,0.94-0.744c0.39-0.396,0.779-0.791,1.152-1.203
		c0.295-0.461,0.606-0.916,0.885-1.387c0.265-1.654,0.897-3.269,1.711-4.683c1.385-2.397,3.558-4.345,6.27-5.047
		c2.504-0.649,5.234-0.038,6.904,2.017c0.848,1.043,1.414,2.25,1.762,3.524c1.732,1.062,1.131,4.104,0.729,5.729
		c-0.233,0.948-0.547,1.877-0.91,2.785c0.027,0.094,0.035,0.196,0.01,0.313c-0.171,0.83-0.572,1.522-1.028,2.193
		c0.064,0.139,0.058,0.308-0.085,0.447c-0.23,0.232-0.472,0.473-0.723,0.704c-0.005,0.005-0.008,0.012-0.012,0.019
		c-0.069,0.1-0.153,0.168-0.242,0.211c-0.396,0.345-0.818,0.656-1.281,0.879c-0.064,0.088-0.127,0.177-0.188,0.267
		c-0.122,0.31-0.271,0.608-0.433,0.903c-0.035,0.137-0.071,0.273-0.113,0.412c-0.041,0.125-0.119,0.205-0.213,0.252
		c-0.008,0.035-0.015,0.07-0.025,0.104c0,0-0.002,0-0.002,0.001c-0.157,0.708-0.713,1.139-1.518,1.146
		c-0.068,0.018-0.133,0.014-0.191-0.006c-0.002,0-0.002,0-0.005,0c-0.403-0.029-0.581-0.555-0.211-0.778
		c0.38-0.229,0.665-0.552,0.872-0.921c0.019-0.303,0.067-0.602,0.127-0.897c-0.07-0.308-0.16-0.62-0.235-0.933
		c-0.024,0.041-0.054,0.08-0.08,0.119c-0.397,0.871-1.002,1.595-1.728,2.215c-0.283,0.244-0.863,0.02-0.697-0.406
		c0.135-0.347,0.257-0.701,0.358-1.059c-0.118-0.246-0.097-0.563,0.16-0.739c-0.071-0.091-0.116-0.21-0.116-0.356
		c-0.003-0.418-0.023-0.842-0.018-1.262c-0.058,0.042-0.113,0.083-0.172,0.124c-0.009,0.082-0.043,0.165-0.112,0.24
		c-0.554,0.602-1.419,0.737-2.175,0.513c-0.086,0.055-0.174,0.105-0.266,0.155c-0.08,0.042-0.156,0.083-0.236,0.125
		c0.553,0.58,0.922,1.315,1.103,2.198c0.194,0.947,0.21,1.906,0.199,2.869c0.364,1.334,0.495,2.719,0.603,4.101
		c0.04,0.506-0.18,0.97-0.529,1.313c0.017,0,0.035-0.002,0.054-0.002h0.477c1.204-0.138,2.305-0.699,3.496-0.906
		c0.044-0.071,0.087-0.145,0.129-0.215c0.108-0.176,0.227-0.346,0.366-0.494c0.006-0.006,0.016-0.012,0.022-0.018
		c0.06-0.197,0.146-0.387,0.241-0.576c0.118-0.238,0.43-0.343,0.673-0.273c0.241,0.064,0.391,0.263,0.431,0.498
		c0.025,0.046,0.058,0.089,0.085,0.134c0.044,0.067,0.074,0.14,0.099,0.211c2.271-0.594,4.641-0.771,6.941-1.201
		c0.114-0.022,0.22-0.012,0.313,0.019c0.051-0.131,0.146-0.248,0.261-0.316c0.307-0.179,0.62-0.043,0.814,0.214
		c0.284,0.374,0.6,0.722,0.895,1.086c1.131-0.431,2.389-0.207,3.562-0.524c0.476-0.129,0.805,0.299,0.734,0.733
		c-0.18,1.101-0.279,2.208-0.318,3.321c0.133,0.109,0.223,0.273,0.223,0.456v0.965c0,0.043-0.009,0.086-0.018,0.127
		c0.216,0.309,0.168,0.805-0.306,0.914c-0.729,0.169-1.478,0.23-2.224,0.29c0.416,0.317,0.77,0.722,0.986,1.181
		c0.52,1.094,0.501,2.256,0.196,3.412c-0.251,0.955-0.675,1.871-1.175,2.744c-0.065,0.362-0.236,0.689-0.479,0.954
		c-0.067,0.378-0.245,0.731-0.517,1.007c-0.057,0.196-0.142,0.381-0.252,0.549c-0.084,0.319-0.244,0.627-0.474,0.895
		c-0.174,0.199-0.347,0.417-0.517,0.645c0,0.012,0.001,0.022,0.001,0.033c0,0.643-0.332,1.221-0.83,1.566
		c-0.42,1.388-1.246,2.605-1.964,3.884c-0.073,0.13-0.143,0.263-0.21,0.396c-0.05,0.105-0.069,0.145-0.061,0.114
		c-0.032,0.08-0.064,0.159-0.098,0.238c-0.235,0.563-0.386,0.899-0.64,1.556c-0.064,0.165-0.123,0.332-0.179,0.499
		c0.545,0.134,1.062,0.417,1.513,0.894c0.743,0.785,0.684,1.916,0.041,2.629c0.005,0,0.009,0.004,0.016,0.006
		c0.146-0.059,0.314-0.094,0.502-0.094c1.058,0,1.451,1.023,1.189,1.793c0,0.108-0.015,0.221-0.043,0.334
		c-0.022,0.322-0.146,0.636-0.371,0.863c-0.031,0.101-0.069,0.198-0.118,0.295c-0.04,0.078-0.087,0.152-0.136,0.227
		c-0.034,0.072-0.08,0.143-0.131,0.208c-0.033,0.053-0.063,0.106-0.093,0.163c-0.174,0.335-0.498,0.543-0.854,0.613
		c-0.044,0.029-0.087,0.057-0.134,0.078c-0.289,0.135-0.414,0.182-0.741,0.196c-0.206,0.009-0.416-0.048-0.604-0.147
		c-2.227,0.455-4.963-0.256-7.054-0.224c-0.922,0.013-1.836,0.005-2.695-0.37c-0.98-0.43-1.428-1.424-1.459-2.445
		c-0.032-1.037,0.44-2.049,0.924-2.938c0.229-0.425,0.494-0.857,0.792-1.263c0.362-1.252,0.906-2.456,1.606-3.527
		c0.13-0.2,0.271-0.392,0.415-0.583c0.009-0.035,0.02-0.068,0.032-0.1c0.197-0.543,0.405-0.869,0.764-1.315
		c0.064-0.081,0.134-0.157,0.204-0.233c0.071-0.264,0.202-0.517,0.387-0.738c0.18-0.348,0.367-0.69,0.55-1.036
		c0.063-0.228,0.117-0.456,0.17-0.685c-0.214,0.148-0.461,0.257-0.727,0.307c-0.021,0.023-0.042,0.048-0.066,0.07
		c-1.257,1.224-2.789,2.046-4.412,2.66c-0.053,0.043-0.111,0.086-0.18,0.137c-0.297,0.215-0.675,0.322-1.021,0.438
		c-0.069,0.022-0.143,0.04-0.212,0.053c-0.352,0.442-0.891,0.73-1.488,0.73c-0.115,0-0.227-0.012-0.334-0.032
		c-0.307,0.179-0.654,0.282-0.979,0.271c-1.496-0.052-2.983,0.098-4.464-0.193c-0.11-0.022-0.22-0.049-0.326-0.079
		c-0.108,0.021-0.223,0.033-0.339,0.033c-0.699,0-1.318-0.395-1.648-0.968c-0.442-0.254-0.777-0.681-0.91-1.183
		c-0.212-0.268-0.413-0.547-0.605-0.832c-0.948-1.396-1.355-3.16-1.642-4.799c-0.153-0.889-0.264-1.785-0.382-2.681
		c-0.008-0.036-0.043-0.313-0.048-0.347c-0.028-0.207-0.061-0.413-0.091-0.619c-0.243-0.51-0.352-1.086-0.276-1.69
		c0.004-0.038,0.009-0.075,0.017-0.112c-0.713-2.198-1.052-4.469-1.164-6.814C792.357,178.361,792.434,176.688,792.798,174.925z"/>
	<path display="none" fill="#CE9F9F" d="M334.754,129.311c0.519-0.479,1.01-0.75,1.492-0.887c-0.396-0.202-0.748-0.532-1.023-1.034
		c-0.253-0.464,0.159-0.886,0.627-0.816c0.773,0.114,1.525,0.142,2.291,0.153c-0.213-0.255-0.261-0.641-0.01-1.247
		c0.14-0.337,0.47-0.515,0.816-0.332c1.174,0.347,1.767,0.087,1.777-0.779c0.11-0.54,0.952-0.524,1.072,0
		c0.249,1.084,0.579,0.933,1.597,0.636c0.515-0.15,0.98-0.288,1.462-0.377c0.025-0.046,0.045-0.091,0.088-0.134
		c0.185-0.186,0.37-0.371,0.556-0.556c0.321-0.321,0.753-0.123,0.898,0.194c0.493-0.067,0.845,0.704,0.331,1.049
		c-0.125,0.084-0.263,0.159-0.406,0.231c-0.717,0.963-1.608,1.629-2.558,2.362c-0.003,0.002-0.007,0.002-0.01,0.005
		c0.394,1.9,0.817,3.795,1.171,5.704c0.06,0.318-0.016,0.588-0.155,0.81c0.278,0.013,0.552,0.041,0.808,0.119
		c0.645-0.462,1.8-0.187,1.796,0.85c-0.001,0.331-0.04,0.638-0.112,0.931c0.184,0.656,0.153,1.379,0.028,2.084
		c3.814-5.646,16.008-8.844,18.367-2.321c0.087,0.144,0.152,0.308,0.168,0.506c0.004,0.039,0.007,0.077,0.01,0.115
		c0.149,0.627,0.22,1.321,0.176,2.108c-0.006,0.116-0.043,0.207-0.073,0.305c0.264,1.048,0.479,2.109,0.443,3.4
		c-0.001,0.035-0.017,0.06-0.021,0.092c0.023,0.184,0.034,0.371,0.021,0.562c-0.029,0.446-0.112,0.871-0.231,1.276
		c-0.021,0.096-0.039,0.189-0.081,0.268c-0.155,0.439-0.362,0.852-0.633,1.223c0.005,0.065,0.02,0.129,0.02,0.197v0.186
		c0,0.313-0.05,0.613-0.121,0.908c0.549,0.166,1.053,0.457,1.482,0.842c1.286-0.912,3.527-1.91,4.394-3.195
		c0.982-1.461,1.765-3.018,3.067-4.206c-0.191-2.015,2.221-3.052,3.552-2.097c-0.04-1.012,0.253-2.168,0.41-2.959
		c0.277-1.405,0.729-3.375,2.015-4.224c0.288-0.19,0.747-0.01,0.816,0.332c0.275,1.347,0.418,2.827,1.031,4.073
		c0.664,1.347,2.29,2.195,3.495,2.982c0.203-0.058,0.418-0.006,0.553,0.133h0.128c0.642,0,0.704,0.886,0.196,1.072
		c0.005,0.004,0.007,0.012,0.011,0.017c0.003,0.001,0.003,0.003,0.004,0.005c0.238,0.268,0.17,0.768-0.199,0.904
		c-0.185,0.104-0.412,0.102-0.59-0.123c-0.002-0.002-0.003-0.004-0.004-0.006c-0.01-0.012-0.016-0.025-0.024-0.037
		c-0.022-0.033-0.045-0.066-0.066-0.101c-0.928,0.652-2.606,0.072-3.909-0.278c0.067,0.488,0.206,0.961,0.43,1.416
		c0.202,0.463-0.129,0.875-0.57,0.813c-0.002,0.308-0.064,0.63-0.212,0.958c-2.111,4.691-5.179,9.987-9.609,13.032
		c2.839,6.325-0.229,12.812-0.092,19.933c0.018,0.836-0.201,1.512-0.556,2.063v0.934c0.129,0.165,0.232,0.347,0.309,0.543
		c0.121,0.171,0.227,0.353,0.299,0.554c0.14,0.166,0.276,0.338,0.387,0.529c0.469,0.818,0.307,1.81-0.216,2.505
		c-0.666,1.941,0.417,4.696,0.473,6.697c0.025,0.941-0.083,1.737-0.271,2.456c0.089,0.239,0.143,0.495,0.132,0.765
		c-0.023,0.643-0.159,1.233-0.369,1.789c0.055,0.492-0.049,1.057-0.43,1.41c-0.014,0.014-0.032,0.021-0.048,0.035
		c-0.755,1.624-2.143,2.98-3.781,3.667c-0.144,0.208-0.313,0.405-0.547,0.574c-1.356,0.971-3.01,0.946-4.538,0.432
		c-0.847-0.284-2.019-1.103-3.08-1.411c-0.033,0.184-0.069,0.358-0.097,0.553c-0.33,2.342-1.188,4.246-2.884,5.89
		c-2.224,2.157-5.512,1.003-6.502-1.715c-1.116-3.065-4.349-4.22-5.188-7.412c-0.695-2.644,1.101-5.458,3.714-6.017
		c0.426-0.091,0.846-0.104,1.265-0.086c-0.1-1.013-0.145-2.025-0.13-3.043c-0.026-1.789,0.548-3.738,1.287-5.338
		c0.516-1.113,1.685-2.505,2.188-3.849c-0.231-0.33-0.425-0.689-0.543-1.12c-0.008-0.026-0.007-0.054-0.015-0.08
		c-0.567-0.501-0.955-1.164-1.143-1.896c-0.779-1.446-1.323-3.021-1.729-4.648c-0.419-0.352-0.838-0.704-1.256-1.057
		c-0.392-0.334-0.785-0.666-1.178-0.995c-0.222-0.154-0.399-0.353-0.549-0.577c-0.026-0.025-0.059-0.061-0.103-0.111
		c-0.253-0.265-0.586-0.465-0.815-0.751c-0.26-0.325-0.468-0.634-0.675-0.989c-0.066-0.115-0.612-0.949-0.176-0.399
		c-0.493-0.619-0.709-1.372-0.557-2.081c-0.227-0.175-0.36-0.426-0.401-0.707c-0.038-0.109-0.065-0.227-0.065-0.363v-0.185
		c0-0.207,0.055-0.375,0.134-0.522c-0.169-0.313-0.282-0.668-0.318-1.048c-0.196-2.047-0.683-4.054-1.032-6.078
		c-0.034-0.198-0.041-0.394-0.036-0.588c-0.193-0.562-0.366-1.133-0.46-1.748c-0.043-0.286-0.052-0.556-0.047-0.819
		c-0.343-0.233-0.56-0.642-0.423-1.164c0.355-1.353,0.332-2.76,0.332-4.15c0-0.091,0.031-0.159,0.049-0.239
		c-0.002-0.009-0.008-0.012-0.009-0.021c-0.31-2.008-0.817-3.967-1.306-5.934c-0.474-0.857-0.774-1.824-0.923-2.785
		c-0.134-0.858,0.005-1.511,0.361-2.021c-0.063-0.25-0.102-0.505-0.135-0.76c-0.01-0.027-0.028-0.047-0.036-0.075
		c-0.317-1.161-0.763-3.03-0.806-4.739c-0.579-0.355-1.188-0.713-1.832-0.804c-0.609,0.374-1.3,0.631-2.071,0.782
		C334.783,130.339,334.315,129.714,334.754,129.311z"/>
	<path fill="#7B7B7B" stroke="#000000" stroke-miterlimit="10" d="M828.5,217.294"/>
</g>
</svg>
