<?xml version="1.0" encoding="utf-8"?>
<!-- Generator: Adobe Illustrator 15.1.0, SVG Export Plug-In . SVG Version: 6.00 Build 0)  -->
<!DOCTYPE svg PUBLIC "-//W3C//DTD SVG 1.1//EN" "http://www.w3.org/Graphics/SVG/1.1/DTD/svg11.dtd">
<svg version="1.1" id="Layer_1" xmlns="http://www.w3.org/2000/svg" xmlns:xlink="http://www.w3.org/1999/xlink" x="0px" y="0px"
	 width="912px" height="362px" viewBox="0 0 912 362" enable-background="new 0 0 912 362" xml:space="preserve">
<g display="none">
	<ellipse display="inline" fill="#CAFFFC" cx="102.481" cy="122.499" rx="67.224" ry="61.876"/>
	<ellipse display="inline" fill="#CAFFFC" cx="207.901" cy="99.582" rx="67.224" ry="61.876"/>
	<ellipse display="inline" fill="#CAFFFC" cx="93.314" cy="221.807" rx="67.224" ry="61.877"/>
	<ellipse display="inline" fill="#CAFFFC" cx="188.039" cy="229.445" rx="67.224" ry="61.877"/>
	<ellipse display="inline" fill="#CAFFFC" cx="313.32" cy="127.082" rx="67.224" ry="61.876"/>
	<ellipse display="inline" fill="#CAFFFC" cx="408.044" cy="99.582" rx="67.224" ry="61.876"/>
	<ellipse display="inline" fill="#CAFFFC" cx="502.769" cy="128.61" rx="67.224" ry="61.876"/>
	<ellipse display="inline" fill="#CAFFFC" cx="569.992" cy="116.387" rx="67.224" ry="61.876"/>
	<ellipse display="inline" fill="#CAFFFC" cx="657.078" cy="128.61" rx="67.224" ry="61.876"/>
	<ellipse display="inline" fill="#CAFFFC" cx="731.94" cy="153.055" rx="67.224" ry="61.876"/>
	<ellipse display="inline" fill="#CAFFFC" cx="808.331" cy="142.36" rx="67.224" ry="61.876"/>
	<ellipse display="inline" fill="#CAFFFC" cx="808.331" cy="246.251" rx="67.224" ry="61.878"/>
	<ellipse display="inline" fill="#CAFFFC" cx="832.776" cy="189.723" rx="67.224" ry="61.876"/>
	<ellipse display="inline" fill="#CAFFFC" cx="704.439" cy="255.418" rx="67.224" ry="61.878"/>
	<ellipse display="inline" fill="#CAFFFC" cx="618.882" cy="255.418" rx="67.223" ry="61.878"/>
	<ellipse display="inline" fill="#CAFFFC" cx="514.992" cy="230.973" rx="67.224" ry="61.878"/>
	<ellipse display="inline" fill="#CAFFFC" cx="417.211" cy="227.917" rx="67.224" ry="61.878"/>
	<ellipse display="inline" fill="#CAFFFC" cx="301.097" cy="252.362" rx="67.224" ry="61.878"/>
	<path display="inline" fill="#CAFFFC" d="M851.874,172.535c0,37.337-165.673,67.605-370.046,67.605
		c-204.371,0-370.043-30.268-370.043-67.605c0-37.338,165.672-67.605,370.043-67.605
		C686.201,104.929,851.874,135.196,851.874,172.535z"/>
	<path display="inline" fill="#CAFFFC" d="M30.009,235.025c0,0-5.364-12.07-7.712-14.754c-2.347-2.683-8.048-21.795-8.048-28.503
		c0-6.706,0.335-14.753,3.018-19.616c1.677-4.191,7.042-11.568,10.731-18.945c2.011-4.694,1.006-18.779,2.011-23.473
		c1.007-4.694,2.683-9.725,6.708-17.101c0.334-1.677,0-3.354,0-3.354h96.321v125.746H30.009z"/>
</g>
<path fill="#CC0000" d="M168.335,145.412c0,8.057-1.924,15.019-5.774,20.882c-3.268,4.923-7.342,8.415-12.22,10.474
	c3.133,1.343,5.684,3.557,7.654,6.646c1.969,3.088,2.955,6.379,2.955,9.871c0,8.684-4.633,15.04-13.898,19.067
	c-7.162,3.132-16.562,4.7-28.199,4.7c-10.027,0-20.792-0.83-32.294-2.486c-0.313-10.429-0.963-27.436-1.947-51.026
	c-0.671-12.666-1.678-30.034-3.021-52.101c8.503-1.655,19.27-2.483,32.294-2.483C150.184,108.956,168.335,121.106,168.335,145.412z"
	/>
<path d="M138.793,189.927c0-5.192-3.716-7.788-11.146-7.788c-0.762,0-1.544,0.044-2.35,0.134l-0.403,16.448
	C134.16,199.124,138.793,196.193,138.793,189.927z"/>
<path fill="#CC0000" d="M141.009,158.034c0-3.446-1.388-6.085-4.163-7.922c-2.507-1.655-5.797-2.438-9.87-2.349l-1.007,20.208
	C135.996,168.33,141.009,165.016,141.009,158.034z"/>
<path fill="#FFC901" d="M254.878,214.565h-36.726l-2.484-8.928c-1.03,0.403-3.604,1.769-7.722,4.094
	c-2.642,1.703-5.572,3.963-8.795,6.782l-3.827-8.125c-0.762-1.611-1.857-3.871-3.29-6.78l-3.625,12.957h-19.471
	c2.864-11.054,7.295-29.293,13.294-54.717c3.669-17.009,6.736-33.145,9.198-48.41h40.351c1.253,7.027,4.677,23.389,10.273,49.081
	C245.144,173.947,249.417,191.964,254.878,214.565z M212.513,192.544c-0.761-2.373-2.104-6.22-4.028-11.548
	c-1.164-2.955-2.931-7.026-5.304-12.22c-1.03,2.596-2.642,6.848-4.834,12.757c-1.208,3.401-2.642,8.036-4.297,13.899
	c1.343,0,4.386-0.269,9.131-0.806C206.045,194.224,209.156,193.529,212.513,192.544z"/>
<path fill="#3100C9" d="M327.055,194.224c-0.448,1.791-1.277,5.168-2.486,10.137c-0.626,2.911-1.164,6.311-1.611,10.205h-60.761
	c-0.225-10.517-0.783-27.839-1.678-51.966c-0.582-12.354-1.635-29.407-3.156-51.161h46.596l-3.829,85.537
	c4.342,0,10.854-0.468,19.54-1.409C321.458,195.388,323.922,194.94,327.055,194.224z"/>
<path fill="#82CC2B" d="M403.271,111.438l-12.622,23.365c-3.402,6.401-7.991,15.352-13.764,26.855
	c-0.537,6.268-1.232,15.153-2.084,26.657c-0.268,6.132-0.716,14.881-1.343,26.25h-34.376c-0.179-5.548-0.581-14.433-1.208-26.653
	c-0.358-4.61-1.185-13.363-2.483-26.253c-2.327-4.789-6.221-12.554-11.682-23.296c-3.536-6.535-8.685-15.511-15.442-26.925h49.55
	c0.806,2.911,2.214,7.499,4.228,13.766l6.446,18.127c1.701-4.118,4.006-10.205,6.917-18.262c0.982-3.178,2.259-7.723,3.826-13.631
	H403.271z"/>
<path fill="#FFC901" d="M473.729,214.565h-36.725l-2.485-8.928c-1.029,0.403-3.604,1.769-7.719,4.094
	c-2.643,1.703-5.574,3.963-8.798,6.782l-3.825-8.125c-0.763-1.611-1.859-3.871-3.291-6.78l-3.625,12.957h-19.471
	c2.863-11.054,7.296-29.293,13.292-54.717c3.671-17.009,6.738-33.145,9.2-48.41h40.351c1.253,7.027,4.677,23.389,10.273,49.081
	C463.996,173.947,468.269,191.964,473.729,214.565z M431.365,192.544c-0.762-2.373-2.105-6.22-4.027-11.548
	c-1.166-2.955-2.934-7.026-5.306-12.22c-1.03,2.596-2.641,6.848-4.835,12.757c-1.208,3.401-2.64,8.036-4.297,13.899
	c1.343,0,4.387-0.269,9.132-0.806C424.896,194.224,428.009,193.529,431.365,192.544z"/>
<path fill="#CC0000" d="M578.419,116.81c-2.462,4.565-7.499,14.191-15.107,28.87c-4.163,8.102-9.893,18.913-17.188,32.431
	c0.626,0.984,4.252,5.125,10.877,12.419c3.895,4.163,9.424,9.468,16.585,15.914c-2.998,1.298-7.901,3.402-14.705,6.312
	c-3.805,1.701-9.152,4.184-16.045,7.45c-1.701-2.059-5.192-6.868-10.474-14.433c-2.954-4.476-5.799-9.243-8.528-14.302h-0.27
	l-0.671,23.096h-37.127l-1.813-53.643c-0.491-11.727-1.544-28.223-3.154-49.484h46.729l-2.621,45.253h0.472
	c1.88-5.281,4.9-13.987,9.063-26.117c1.701-5.281,3.896-12.533,6.58-21.753l19.002,4.162
	C566.199,114.327,572.331,115.601,578.419,116.81z"/>
<path fill="#FFC901" d="M662.795,193.812l-36.307,5.307l-3.311-4.784c-0.98,0.381-3.396,1.539-7.241,3.475
	c-2.447,1.362-5.126,3.088-8.041,5.177l-4.567-4.128c-0.905-0.818-2.207-1.961-3.901-3.429l-2.336,7.986l-19.247,2.814
	c1.768-6.782,4.396-17.93,7.881-33.443c1.993-10.327,3.472-20.066,4.437-29.216l39.893-5.831
	c1.911,3.868,6.867,12.798,14.868,26.791C649.266,171.821,655.225,181.581,662.795,193.812z M618.796,187.247
	c-0.979-1.255-2.675-3.278-5.089-6.069c-1.438-1.534-3.573-3.625-6.418-6.273c-0.768,1.643-1.952,4.326-3.552,8.046
	c-0.87,2.134-1.839,5.013-2.911,8.629c1.326-0.194,4.309-0.79,8.949-1.784C612.568,189.15,615.575,188.3,618.796,187.247z"/>
<path fill="#FFC901" d="M749.482,212.962l-35.631-8.519l-1.029-5.614c-1.063-0.012-3.771,0.16-8.124,0.518
	c-2.826,0.35-6.016,0.945-9.58,1.789l-2.459-5.475c-0.49-1.085-1.204-2.614-2.147-4.588l-5.515,6.472l-18.889-4.516
	c4.483-5.575,11.595-14.843,21.333-27.8c6.181-8.75,11.641-17.148,16.384-25.19l39.148,9.358c0.133,4.257,0.928,14.286,2.395,30.086
	C746.297,187.777,747.669,198.937,749.482,212.962z M711.774,190.706c-0.373-1.516-1.085-4-2.126-7.453
	c-0.676-1.937-1.762-4.646-3.263-8.127c-1.397,1.227-3.616,3.252-6.655,6.08c-1.698,1.639-3.801,3.924-6.313,6.849
	c1.305,0.312,4.299,0.865,8.985,1.663C705.244,190.154,708.367,190.483,711.774,190.706z"/>
<path fill="#3100C9" d="M820.056,194.224c-0.448,1.791-1.274,5.168-2.483,10.137c-0.627,2.911-1.164,6.311-1.61,10.205h-60.764
	c-0.225-10.517-0.782-27.839-1.677-51.966c-0.582-12.354-1.636-29.407-3.157-51.161h46.596l-3.826,85.537
	c4.341,0,10.853-0.468,19.536-1.409C814.46,195.388,816.922,194.94,820.056,194.224z"/>
<g>
	<path fill="#FFC901" d="M597.248,236.143c10.527,7.622,21.566,13.927,33.219,18.443c11.623,4.528,23.803,7.274,36.053,7.786
		c12.244,0.513,24.535-1.263,36.18-5.453c11.682-4.142,22.579-10.708,32.831-18.699c-7.545,10.601-17.979,19.414-30.091,25.225
		c-12.101,5.833-25.81,8.517-39.295,7.917c-13.504-0.566-26.749-4.268-38.583-10.349
		C615.744,254.909,605.196,246.468,597.248,236.143z"/>
</g>
<path fill="#FFE9E9" d="M143.495,188.595c0.086-0.145,0.148-0.32,0.173-0.535c0.13-1.14,0.016-2.188-0.242-3.188
	c0.044-0.145,0.067-0.294,0.051-0.453c-0.174-1.608-0.886-2.987-1.815-4.289c-0.16-0.224-0.367-0.4-0.597-0.517
	c-0.237-0.458-0.471-0.922-0.69-1.397c-0.151-0.33-0.368-0.53-0.612-0.635c-0.34-0.424-0.718-0.833-1.141-1.216
	c-2.58-2.34-6.682-3.432-10.095-2.83c-0.897-0.088-1.785,0.012-2.682,0.21c-0.317,0.069-0.567,0.273-0.741,0.534
	c-0.218,0.02-0.441,0.011-0.679-0.057c-0.224-0.065-0.43-0.075-0.616-0.046c-0.007-0.166-0.021-0.332-0.042-0.498
	c-0.019-0.166-0.046-0.331-0.079-0.494c0.137,0.371,0.172-0.395,0.044-0.771c-0.036-0.125-0.067-0.203,0.053-0.97
	c0,0,0.058-0.241,0.117-0.481c0.059-0.241,0.117-0.482,0.117-0.482c0.055-0.229,0.071-0.459,0.052-0.683
	c-0.018-0.224-0.071-0.443-0.152-0.65c-0.048-0.052-0.048-1.58,0.138-1.958c0.045-0.139,0.103-0.29,0.174-0.468
	c0.071-0.178,0.158-0.382,0.262-0.628c0.055-0.11,0.102-0.225,0.14-0.343c0.039-0.118,0.069-0.239,0.091-0.363
	c0.222-0.434,0.315-0.929,0.239-1.412c0.119-0.49,0.092-1-0.123-1.461c0.02,0.002,0.039,0.005,0.058,0.01
	c0.054,0.015,0.104,0.033,0.159,0.047c0.02,0.004,0.037,0.004,0.057,0.009c0.067,0.104,0.168,0.191,0.324,0.228l0.412,0.101
	c0.049,0.011,0.089,0.006,0.134,0.008c0.274,0.119,0.657,0.017,0.789-0.297c0.413-0.042,0.788-0.24,1.04-0.683
	c0.074-0.13,0.082-0.252,0.06-0.366c0.025-0.034,0.054-0.064,0.076-0.1c0.895-0.213,1.727-0.813,2.013-1.679
	c0.545-0.007,0.732-0.801,0.239-1.048c0.012-0.037,0.025-0.07,0.039-0.106c0.314-0.1,0.459-0.487,0.336-0.78
	c0.397-0.754,0.929-1.436,1.341-2.24c0.904-1.764,0.803-3.852-0.151-5.576c-1.155-2.084-2.8-3.55-5.105-4.207
	c-1.183-0.338-2.479-0.11-3.56,0.42c-0.046,0.022-0.089,0.05-0.134,0.074c-1.388-0.309-3.073,0.625-3.411,2.034
	c-0.542,0.808-0.599,1.873-0.198,2.762c-0.125,0.196-0.236,0.4-0.321,0.617c-0.162,0.348-0.242,0.703-0.256,1.053
	c-0.007,0.176-0.023,0.348,0.031,1.037c-0.008,0.06,0.017,0.129-0.005,0.233c-0.061,0.313-0.021,0.613,0.101,0.884
	c-0.074,0.278,0.033,0.604,0.394,0.691c0.073,0.018,0.138,0.015,0.201,0.008c0.069,0.41,0.212,0.771,0.408,1.083
	c-0.323,0.295-0.633,0.602-0.939,0.913c-0.718-0.052-1.298,0.229-1.698,0.681c-0.264,0.129-0.493,0.314-0.679,0.54
	c-0.004,0.002-0.01,0.005-0.014,0.006c-0.357,0.245-0.645,0.515-0.92,0.827c-0.3,0.112-0.577,0.287-0.797,0.542
	c-0.109,0.128-0.231,0.239-0.354,0.353c-0.15,0.101-0.303,0.196-0.455,0.292c-0.058,0.034-0.106,0.079-0.158,0.118
	c-0.309,0.109-0.59,0.289-0.809,0.556c-0.218,0.266-0.416,0.545-0.614,0.824c-0.012,0.014-0.022,0.027-0.033,0.041
	c-0.091,0.111-0.174,0.226-0.249,0.341c-0.319,0.111-0.615,0.29-0.843,0.56c-0.264,0.312-0.535,0.613-0.835,0.888
	c-0.013,0.011-0.028,0.022-0.043,0.032c-0.14,0.089-0.265,0.192-0.38,0.304c-0.438,0.125-0.801,0.393-1.066,0.74
	c-0.133,0.173-0.245,0.361-0.371,0.511c-0.06,0.242-1.588,1.77-1.484,1.54c-0.235,0.138-0.439,0.305-0.618,0.493
	c-1.069,1.128-1.235,3.008-1.897,3.651c-0.126,0.199-0.223,0.42-0.276,0.661c-0.245,1.083-0.3,2.198-0.101,3.28
	c-0.266,0.513-0.337,1.136-0.216,1.755c0.293,1.518,0.632,3.019,0.701,4.568c0.014,0.329,0.091,0.612,0.207,0.861
	c0,0.057,0.003,0.117,0.014,0.18c0.387,2.198,0.798,4.201,0.38,6.427c-0.298,1.582-0.892,3.028-0.975,4.655
	c-0.113,2.242,1.672,3.738,3.557,4.541c0.074,0.245,0.262,0.456,0.588,0.536l0.689,0.166c0.06,0.015,0.118,0.022,0.173,0.024
	c0.035,0.014,0.063,0.034,0.102,0.043c0.449,0.107,0.898,0.183,1.361,0.151c0.381-0.024,0.698-0.283,0.792-0.637
	c0.019-0.021,0.044-0.042,0.063-0.067c0.555-0.08,0.827-0.735,0.625-1.21c0.042-0.225,0.04-0.479-0.019-0.766
	c-0.267-1.305-1.368-1.861-2.367-2.606c-0.067-0.134-0.153-0.259-0.252-0.377c-0.209-0.597,0.08-1.598,0.571-2.483
	c0.618-0.188,1.077-0.653,1.329-1.221c0.054-0.109,0.113-0.203,0.631-0.388c0.159-0.031,0.309-0.081,0.448-0.146
	c0.002,0,0.003,0,0.007,0c0.454,0.946,1.645,1.54,2.869,1.91c0.468,0.38,0.958,0.729,1.476,1.03
	c0.081,0.048,0.161,0.076,0.239,0.096c0.388,1.714,1.575,3.2,2.66,4.52c0.105,0.126,0.217,0.217,0.332,0.292
	c1.234,1.962,3.674,2.777,5.813,3.408c3.313,0.978,6.208,1.242,9.532,0.237c0.209-0.063,0.38-0.157,0.519-0.274
	c0.138-0.115,0.242-0.253,0.316-0.405c1.179-0.591,1.179-0.591,1.859-1.669c0.161-0.189,0.322-0.378,0.483-0.567
	c1.446-1.7,2.853-3.405,3.681-5.454c0.28-0.166,0.508-0.438,0.611-0.847C143.357,190.603,143.606,189.58,143.495,188.595z
	 M116.386,188.047c-0.298-0.119-0.567-0.3-0.839-0.48c-0.126-0.085-0.257-0.162-0.387-0.236c0.115-0.132,0.195-0.305,0.212-0.518
	c0.022-0.277,0.089-0.553,0.178-0.819c0.368,0.275,0.741,0.546,1.112,0.815C116.594,187.23,116.514,187.646,116.386,188.047z
	 M121.117,176.303c-1.065,0.559-2.1,1.149-2.947,1.963c-0.195-0.558-0.313-1.15-0.384-1.719c0.106-0.073,0.203-0.166,0.282-0.276
	c0.154-0.213,0.333-0.403,0.525-0.578c0.248,0.015,0.495,0.027,0.744,0.039c0.216,0.008,0.411-0.089,0.558-0.238
	c0.009-0.004,0.021-0.004,0.029-0.008c0.05,0.024,0.147,0.067,0.168,0.079c0.02,0.013,0.035,0.023,0.045,0.029
	c0.03,0.027,0.059,0.051,0.084,0.078c0.008,0.009,0.007,0.006,0.013,0.014c0.041,0.073,0.045,0.075,0.024,0.024
	c0,0,0,0.001,0.001,0.001c0.155,0.363,0.477,0.618,0.864,0.588C121.123,176.301,121.12,176.301,121.117,176.303z"/>
<g display="none">
	<path display="inline" fill="#FFFFFF" d="M37.294,107.985c5.713-8.736,12.865-16.638,21.477-22.655
		c8.588-6.024,18.626-9.992,29.043-11.455c10.424-1.506,21.091-0.636,31.313,1.735c10.245,2.381,20.108,6.191,29.527,10.81
		l-0.591-0.037c-0.221,0.098-0.142,0.085-0.148,0.074l0.063-0.065l0.168-0.193l0.354-0.441l0.712-0.926l1.433-1.878
		c0.962-1.251,1.94-2.493,2.941-3.717c2-2.449,4.087-4.833,6.268-7.129c4.362-4.59,9.103-8.85,14.294-12.527
		c5.186-3.671,10.839-6.763,16.901-8.831c6.049-2.077,12.512-3.073,18.934-2.73c6.424,0.326,12.742,1.973,18.595,4.556
		c5.866,2.58,11.29,6.045,16.282,9.99c9.985,7.935,18.351,17.631,25.758,27.872l-1.72-0.329c6.189-3.967,12.498-7.897,19.333-10.929
		c6.806-3.04,14.225-5.042,21.777-5.225c7.55-0.225,15.05,1.286,22.071,3.803c7.039,2.522,13.665,5.986,19.967,9.882l-1.811-1.119
		l2.438,2.527c-3.163-3.278-2.191-0.132-2.396-1.125l-0.021,0.027l0.019-0.027l0.067-0.098l0.15-0.225l0.31-0.465l0.632-0.933
		l1.296-1.846c0.878-1.221,1.783-2.42,2.713-3.6c1.86-2.359,3.82-4.639,5.879-6.83c4.118-4.378,8.633-8.41,13.574-11.888
		c4.938-3.473,10.317-6.386,16.06-8.4c5.733-2.02,11.829-3.104,17.932-3.072c6.104,0.018,12.177,1.144,17.916,3.111
		c5.749,1.965,11.173,4.741,16.241,8.001c10.133,6.571,18.856,14.965,26.705,23.957l-2.089-0.118
		c3.953-3.612,8.626-6.346,13.559-8.264c4.938-1.921,10.143-3.056,15.384-3.529c5.244-0.469,10.54-0.291,15.74,0.568
		c5.19,0.872,10.327,2.393,15.032,4.975l0.014,0.007l0.085,0.053c-0.336-0.208-0.526-0.155-0.551-0.158
		c-0.022,0.001,0.022-0.004,0.088-0.028c0.134-0.045,0.335-0.139,0.533-0.245c0.405-0.215,0.839-0.481,1.271-0.755l2.635-1.728
		c1.774-1.174,3.583-2.335,5.437-3.425c3.703-2.188,7.592-4.107,11.646-5.622c8.096-3.052,16.912-4.355,25.558-3.538
		c8.656,0.779,17.017,3.574,24.635,7.555c7.64,3.985,14.601,9.101,20.998,14.768l-0.844-0.319c-0.41,0.03-0.326,0.062-0.36,0.057
		l0.037-0.016l0.144-0.066l0.339-0.166l0.708-0.355l1.441-0.715c0.966-0.472,1.939-0.931,2.922-1.372
		c1.964-0.88,3.957-1.698,5.975-2.45c4.035-1.502,8.172-2.743,12.382-3.672c8.411-1.859,17.168-2.459,25.752-1.268
		c8.577,1.169,16.904,4.204,24.201,8.84c7.322,4.616,13.601,10.708,18.862,17.486l-1.09-0.286c0.396-0.188,0.975-0.459,1.463-0.667
		c0.511-0.22,1.025-0.426,1.544-0.622c1.035-0.392,2.085-0.737,3.146-1.046c2.119-0.615,4.278-1.079,6.456-1.398
		c4.357-0.641,8.786-0.71,13.154-0.269c8.754,0.874,17.188,3.805,24.857,7.951l0.097,0.052l0.079,0.078
		c-0.098-0.097-0.194-0.085-0.144-0.083c0.036,0.003,0.144-0.023,0.243-0.053c0.217-0.071,0.466-0.188,0.712-0.316
		c0.497-0.261,1-0.574,1.499-0.893c0.999-0.644,1.994-1.327,2.993-2.003c1.998-1.357,4.02-2.701,6.086-3.974
		c4.129-2.551,8.438-4.835,12.931-6.696c8.965-3.746,18.729-5.713,28.448-5.298c9.725,0.367,19.251,3.067,27.956,7.266
		c8.723,4.217,16.678,9.851,23.96,16.173c-7.382-6.206-15.415-11.701-24.157-15.756c-8.71-4.071-18.183-6.63-27.786-6.876
		c-9.6-0.294-19.185,1.757-27.975,5.551c-4.405,1.886-8.626,4.188-12.677,6.757c-2.028,1.283-4.012,2.636-5.989,4.014
		c-0.991,0.688-1.978,1.383-2.999,2.059c-0.515,0.336-1.031,0.669-1.6,0.977c-0.287,0.152-0.582,0.301-0.938,0.424
		c-0.188,0.057-0.373,0.118-0.64,0.132c-0.246,0.017-0.665-0.034-0.98-0.347l0.175,0.13c-7.561-4.014-15.814-6.811-24.314-7.598
		c-4.242-0.399-8.528-0.3-12.729,0.347c-4.215,0.665-8.277,1.799-12.157,3.7l-0.624,0.306l-0.466-0.592
		c-5.202-6.604-11.362-12.487-18.479-16.904c-7.095-4.437-15.131-7.299-23.416-8.372c-8.291-1.091-16.766-0.457-24.932,1.409
		c-4.088,0.933-8.108,2.168-12.031,3.661c-1.961,0.747-3.898,1.557-5.809,2.429c-0.954,0.436-1.904,0.883-2.847,1.347l-1.414,0.706
		l-0.716,0.361l-0.377,0.186l-0.218,0.101l-0.147,0.062c-0.096,0.018-0.074,0.074-0.551,0.112l-0.441,0.036l-0.402-0.355
		c-6.291-5.547-13.105-10.522-20.513-14.364c-7.39-3.838-15.42-6.49-23.674-7.213c-8.244-0.758-16.613,0.495-24.363,3.434
		c-3.882,1.46-7.617,3.313-11.202,5.442c-1.796,1.062-3.553,2.194-5.309,3.362l-2.675,1.763c-0.462,0.293-0.93,0.585-1.46,0.869
		c-0.269,0.141-0.545,0.282-0.911,0.413c-0.184,0.063-0.396,0.129-0.681,0.167c-0.284,0.025-0.756,0.065-1.318-0.288l0.098,0.06
		c-4.333-2.368-9.204-3.815-14.146-4.63c-4.952-0.806-10.021-0.966-15.022-0.506c-5,0.462-9.944,1.558-14.594,3.379
		c-4.644,1.818-8.991,4.386-12.634,7.73l-1.101,1.011l-0.988-1.128c-7.74-8.837-16.323-17.015-26.126-23.362
		c-4.893-3.164-10.1-5.838-15.575-7.724c-5.469-1.888-11.21-2.962-16.973-2.993c-5.762-0.042-11.516,0.964-16.969,2.87
		c-5.461,1.901-10.617,4.672-15.382,8.006c-4.768,3.339-9.155,7.235-13.169,11.483c-2.007,2.126-3.921,4.342-5.737,6.634
		c-0.908,1.146-1.792,2.312-2.647,3.497l-1.264,1.791l-0.616,0.907l-0.308,0.459l-0.159,0.237l-0.091,0.131l-0.062,0.086
		l-0.063,0.082c-0.216-0.982,0.73,2.207-2.438-1.096l0.628,1.407c-6.173-3.837-12.634-7.227-19.427-9.677
		c-6.779-2.448-13.93-3.894-21.089-3.697c-7.162,0.159-14.207,2.03-20.8,4.954c-6.615,2.914-12.834,6.758-19.007,10.697
		l-1.017,0.648l-0.704-0.978c-7.292-10.127-15.433-19.748-25.132-27.546c-4.843-3.882-10.085-7.278-15.726-9.806
		c-5.63-2.53-11.674-4.146-17.823-4.502c-6.146-0.371-12.349,0.537-18.206,2.501c-5.867,1.956-11.39,4.919-16.486,8.475
		c-5.102,3.561-9.793,7.714-14.125,12.209c-2.166,2.249-4.242,4.587-6.236,6.995c-0.998,1.204-1.975,2.425-2.938,3.66l-1.441,1.862
		l-0.732,0.938l-0.388,0.476l-0.221,0.25l-0.144,0.144c-0.08,0.055-0.075,0.109-0.386,0.246l-0.275,0.122l-0.316-0.158
		c-9.301-4.653-19.014-8.559-29.122-11.021c-10.084-2.46-20.608-3.438-30.925-2.067C77.62,76.029,67.64,79.835,59.041,85.722
		C50.4,91.57,43.14,99.335,37.294,107.985z"/>
</g>
<path fill="#FFEBC0" d="M428.192,199.993c0,1.391,17.073-9.639,17.189-9.729c2.2-1.707,2.864-2.229,4.9-3.947
	c1.803-1.521,2.368-2.114,4.584-3.597c0.156-0.105,1.561-0.991,1.655-1.114c0.271-0.083,0.469-0.327,0.604-0.541
	c0.055-0.024,0.97-0.781,1.018-0.827c1.812-1.763,1.592-1.596,2.961-3.087c0.184-0.201,0.888-0.316,0.923-0.534
	c0.376,0.047,0.775-0.039,1.061-0.307c1.557-1.444,2.073-3.029,2.395-5.086c0.283-1.813,1.145-3.309,2.116-4.766
	c-0.102,0.947-0.054,1.87,0.083,2.785c0.026,0.183,0.046,0.364,0.046,0.542c-0.099,0.84-0.099,2.368-0.729,3.183
	c-0.092,0.171-0.214,0.323-0.33,0.469c-0.703,0.872-0.925,1.534-1.184,2.903c-0.026,0.033-0.246,0.907-0.274,0.939
	c-0.049,0.062-0.146,0.84-0.182,0.904c-0.121,1.228-0.276,1.658-0.313,2.061c-0.281,3.034,1.432,7.208,3.95,9.696
	c-0.007,0.005-0.014,0.013-0.02,0.017c-2.398,2.09-5.141,4.372-6.986,7.046c-0.142,0.206-0.291,0.394-0.455,0.559
	c0.055,0.19-0.151,0.421-0.463,0.539c-0.318,0.113-0.651,0.2-0.552,0.373c-0.17,0.116-0.362,0.216-0.563,0.308
	c-0.999,0.465-2.026,0.869-3.032,1.324c-1.786,0.806-3.144,2.415-4.671,3.579c-0.583,0.443-0.948,1.412-0.255,1.976
	c0.333,0.273,0.687,0.487,1.054,0.668c-0.273,0.575-0.118,1.239,0.46,1.624c3.028,2.032,4.642,5.119,8.474,5.788
	c1.135,0.196,1.891-0.808,1.421-1.847c-0.374-0.829-1.073-1.612-1.418-2.386c0.785-1.611,1.512-3.166,2.897-4.476
	c0.814-0.771,1.699-1.466,2.592-2.156c0.675-0.332,1.309-0.632,1.883-0.872c0.447-0.187,0.68-0.543,0.773-0.929
	c1.96-1.17,3.706-2.534,5.303-4.211c0.007,1.852-0.101,3.939,0.169,5.871c0.033,0.242,0.072,0.48,0.106,0.714
	c0.025,0.233-0.034,0.451-0.048,0.683c-0.034,0.205-0.025,0.425-0.087,0.669c-0.063,0.243-0.083,0.514-0.051,0.809
	c0.093,0.828,0.157,1.658,0.215,2.488c0.016,0.208,0.028,0.416,0.044,0.623c0.012,0.207,0.028,0.414,0.043,0.622
	c-0.318,0.433-0.508,0.965-0.512,1.51c-0.054,4.611,5.552,4.213,8.636,3.471c0.239-0.059,0.458-0.159,0.656-0.287
	c0.166,0.094,0.348,0.164,0.562,0.17c1.664,0.031,3.811,0.393,4.651-1.462c0.251-0.559,0.223-1.432-0.455-1.721
	c-1.258-0.538-2.575-0.925-3.869-1.366c-0.186-0.063-0.371-0.126-0.937-1.358c0.03-0.297,0.059-0.581,0.084-0.854
	c0.025-0.272,0.044-0.531,0.054-0.775c0.01-0.242,0.014-0.469,0.016-0.678c0.051-0.226,0.051-1.753,0.221-1.478
	c0.033-0.119,0.104-0.245,0.167-0.381c0.186-0.405,0.282-0.89,0.259-1.456c-0.001-0.041-0.014-0.083-0.018-0.125
	c0.158-0.322,0.256-0.693,0.246-1.136c-0.004-0.185,0.005-0.362,0.018-0.533c0.013-0.171,0.028-0.338,0.153-1.955
	c0.013-0.162,0.008-0.324,0.028-0.488c0.037-0.33,0.057-0.666,0.094-0.99c0.249-2.124,0.211-3.275-0.028-4.868
	c0.012-2.095-0.117-2.707-0.78-5.019c-0.033-0.115-0.129-0.17-0.182-0.267c0.101-1.849,0.192-3.708-0.118-5.431
	c-0.04-0.215-0.084-0.429-0.137-0.64c0.128-2.961,0.128-4.489-0.242-6.963c0.049-0.197,0.089-0.396,0.121-0.595
	c0.101-0.599,0.135-1.208,0.112-1.824c-0.008-0.229-0.022-0.458-0.045-0.688c0.182-2.059,0.182-5.114,0.917-6.597
	c0.021-0.185,0.047-0.38,0.063-0.586c0.12-0.358,0.211-0.736,0.237-1.13c0.014-0.281-0.026-0.536-0.026-0.811
	c0.031-0.161,0.074-0.329,0.1-0.491c0.11-0.725,0.021-1.375-0.186-1.96c-0.008-0.645-0.012-1.286-0.099-1.978
	c-0.184-1.509-0.933-2.842-2.215-3.44c-0.027-0.037-0.046-0.081-0.072-0.118c-0.053-0.149-0.104-0.292-0.156-0.444
	c-0.23-0.639-0.378-1.292-0.498-1.955c1.722,0.761,3.724,0.608,5.206-0.739c1.439-1.31,1.657-3.401,2.234-4.769
	c2.527-2.508,3.831-6.157,2.188-9.548c-2.25-4.63-9.147-6.308-13.492-3.887c-3.283,1.831-6.396,8.196-4.445,11.958
	c-0.02,1.141,0.125,2.288,0.25,3.509c0.101,0.971-0.698,1.974-1.67,2.887c-0.213,0.089-0.417,0.222-0.574,0.462
	c-0.762,1.153-2.917,1.302-3.995,2.261c-0.194,0.171-0.349,0.365-0.474,0.574c-0.478,0.503-0.478,0.503-1.29,2.008
	c-0.078,0.17-0.188,0.335-0.303,0.504c-0.57,0.843-0.999,1.803-1.303,2.779c-0.079,0.252-0.129,0.507-0.173,0.765
	c-0.557,1.165-1.403,2.184-1.787,3.422c-0.222,0.722-0.328,1.458-0.396,2.201c-0.118,0.13-0.215,0.278-0.26,0.461
	c-0.723,2.963-2.021,5.622-2.143,8.72c-0.004,0.103,0.037,0.174,0.053,0.265c-0.782,1.451-1.417,2.519-2.946,3.489
	c-0.157,0.098-0.74,0.604-0.827,0.731c-0.235,0.088-0.98,0.628-1.105,0.819c-1.22,1.027-1.645,1.309-1.729,1.376
	c-2.938,2.406-1.41,1.24-2.938,2.406c-1.879,1.432-2.267,2.426-4.286,3.705c0,0-1.144,0.952-1.146,0.955
	c-0.104,0.027-1.807,1.463-1.909,1.528c-3.333,2.112-3.333,2.112-7.959,4.583c-10.304,5.504-8.088,4.621-6.493,5.475
	L428.192,199.993z"/>
<path fill="#A998E5" d="M238.264,145.624c-2.102-3.672-2.015-8.067,1.888-10.422c4.152-2.506,10.459-1.988,13.597,1.782
	c0.061,0.069,0.13,0.124,0.172,0.206c0.14,0.182,0.312,0.329,0.437,0.522c2.074,3.214,2.146,8.139,0.093,11.484
	c0.051,0.227,0.039,0.477-0.119,0.753c-0.354,0.621-0.563,1.017-1.2,1.379c-0.245,0.139-0.467,0.16-0.676,0.133
	c0.227,0.274,0.429,0.577,0.673,0.833c0.098,0.027,0.175,0.07,0.266,0.102c1.327-0.334,2.643-0.712,3.95-1.117
	c0.068-0.345,0.271-0.663,0.687-0.849c4.601-2.065,7.583-4.762,9.323-9.559c0.017-0.044,0.064-0.068,0.086-0.11
	c-1.36-4.399-2.238-8.833-2.235-13.493c0.008-6.14,2.014-12.865,0.072-18.813c-0.047,0.031-0.095,0.067-0.14,0.091
	c-1.063,0.544-1.805-0.529-1.649-1.457c-0.248-0.074-0.488-0.189-0.667-0.388c-0.487-0.54-0.987-1.075-1.491-1.61
	c-0.367-0.043-0.701-0.259-0.858-0.743c-0.026-0.081-0.042-0.163-0.067-0.243c-0.658-0.698-1.31-1.399-1.947-2.107
	c-0.268-0.044-0.538-0.181-0.772-0.445c-0.635-0.712-1.121-1.499-1.535-2.319c-2.548-3.383-4.235-7.136-3.405-11.914
	c0.796-4.576,5.766-7.614,10.178-7.428c5.95,0.25,8.694,4.194,9.206,9.782c0.398,4.345-0.122,8.729-2.181,12.591
	c-0.55,1.031-1.302,2.394-2.175,3.627c0.876,0.388,0.988,1.799,0.063,2.248c1.119,3.809,0.766,7.688,0.314,11.717
	c-0.831,7.398-0.329,14.32,2.042,21.402c0.077,0.234,0.072,0.45,0.036,0.65c0.711-0.377,1.727-0.166,1.799,0.859
	c0.131,1.9,0.768,3.723,1.497,5.469c0.623,1.494-1.683,2.48-2.308,0.99c-0.32-0.77-0.615-1.568-0.879-2.377
	c-0.121,0.314-0.256,0.621-0.424,0.917c-0.47,1.072-1.199,2-1.915,2.935c-0.191,0.249-0.425,0.366-0.664,0.426
	c-0.043,0.107-0.091,0.215-0.183,0.322c-2.403,2.769-5.765,3.927-8.79,5.834c-0.112,0.07-0.224,0.094-0.338,0.13
	c-0.008,0.011-0.007,0.023-0.014,0.036c-0.147,0.177-0.267,0.371-0.356,0.583c-0.018,0.038-0.044,0.054-0.062,0.086
	c1.208,1.994,2.061,4.534,2.977,8.368c0.21,0.884,0.385,1.779,0.575,2.671c0.021,0.006,0.041,0.003,0.058,0.014
	c0.432,0.205,0.815,0.372,1.024,0.831c0.057,0.108,0.078,0.232,0.125,0.343c0.506-0.156,1.009-0.311,1.512-0.469
	c1.146-0.355,2.171,0.851,1.591,1.781c0.224,0.139,0.348,0.251,0.292,0.303c0.742-0.665,1.86-0.06,2.015,0.816
	c0.273,1.559,0.104,4.032-2.267,3.579c-0.993-0.19-1.793-0.384-2.542-0.765c-0.18,0.775-0.256,1.599-0.257,2.449
	c0.22,1.606,0.412,3.218,0.574,4.835c0.404,1.952,0.912,3.822,1.208,5.35c0.985,5.12-1.563,11.97,0.333,17.092
	c0.637,1.718,1.058,1.796,1.655,2.737c0.7,1.018,3.262,2.281,3.565,2.992c0.372,0.875-0.469,3.346-1.719,3.517h-1.4
	c-1.209,0,0.319,0-1.209,0c-0.247,0-0.464-0.051-0.637-0.207c-1.272,0.637-1.398-0.149-2.869,0.207
	c-2.139,0.534-6.04,0.441-8.191,0.918c-4.171,0.954-6.135-3.064-5.197-6.315c-0.007-0.216-0.024-0.431-0.007-0.644
	c0.252-3.184-2.653-6.468-3.083-9.622c-0.681-4.984-0.879-9.993-1.439-14.99c-1.125-10.036-3.266-18.85-2.851-29.114
	c0.029-0.71,0.286-1.374,0.669-1.969c-0.258-0.925-0.182-1.74,0.162-2.437c-0.11-0.281-0.233-0.562-0.367-0.839
	C240.434,148.545,239.181,147.226,238.264,145.624z"/>
<path fill="#FFEBC0" d="M414.41,199.972l6.083,11.331c0,0,8.896-6.332,12.505-7.511l-3.245-7.194L414.41,199.972z"/>
<circle fill="#FFEBC0" cx="423.131" cy="209.965" r="1.463"/>
<circle fill="#FFEBC0" cx="430.771" cy="205.382" r="1.464"/>
<path display="none" fill="#CE9F9F" d="M334.754,129.516c0.519-0.478,1.01-0.749,1.492-0.886c-0.396-0.202-0.748-0.532-1.023-1.034
	c-0.253-0.464,0.159-0.886,0.627-0.816c0.773,0.114,1.525,0.142,2.291,0.153c-0.213-0.255-0.261-0.641-0.01-1.247
	c0.14-0.337,0.47-0.515,0.816-0.332c1.174,0.347,1.767,0.087,1.777-0.779c0.11-0.54,0.952-0.524,1.072,0
	c0.249,1.084,0.579,0.933,1.597,0.636c0.515-0.15,0.98-0.288,1.462-0.377c0.025-0.046,0.045-0.091,0.088-0.134
	c0.185-0.186,0.37-0.371,0.556-0.556c0.321-0.321,0.753-0.123,0.898,0.194c0.493-0.067,0.845,0.704,0.331,1.049
	c-0.125,0.084-0.263,0.159-0.406,0.231c-0.717,0.963-1.608,1.629-2.558,2.362c-0.003,0.002-0.007,0.002-0.01,0.005
	c0.394,1.9,0.817,3.795,1.171,5.704c0.06,0.318-0.016,0.587-0.155,0.809c0.278,0.013,0.552,0.041,0.808,0.119
	c0.645-0.462,1.8-0.187,1.796,0.85c-0.001,0.331-0.04,0.637-0.112,0.93c0.184,0.657,0.153,1.379,0.028,2.084
	c3.814-5.646,16.008-8.844,18.367-2.321c0.087,0.144,0.152,0.308,0.168,0.506c0.004,0.039,0.007,0.077,0.01,0.115
	c0.149,0.627,0.22,1.322,0.176,2.108c-0.006,0.117-0.043,0.208-0.073,0.306c0.264,1.047,0.479,2.109,0.443,3.4
	c-0.001,0.035-0.017,0.059-0.021,0.091c0.023,0.184,0.034,0.371,0.021,0.562c-0.029,0.447-0.112,0.871-0.231,1.277
	c-0.021,0.095-0.039,0.189-0.081,0.267c-0.155,0.439-0.362,0.851-0.633,1.222c0.005,0.066,0.02,0.13,0.02,0.198v0.185
	c0,0.313-0.05,0.614-0.121,0.908c0.549,0.167,1.053,0.458,1.482,0.843c1.286-0.912,3.527-1.911,4.394-3.196
	c0.982-1.461,1.765-3.017,3.067-4.206c-0.191-2.015,2.221-3.051,3.552-2.097c-0.04-1.012,0.253-2.167,0.41-2.959
	c0.277-1.405,0.729-3.375,2.015-4.223c0.288-0.19,0.747-0.01,0.816,0.332c0.275,1.346,0.418,2.827,1.031,4.073
	c0.664,1.347,2.29,2.195,3.495,2.983c0.203-0.058,0.418-0.006,0.553,0.132h0.128c0.642,0,0.704,0.886,0.196,1.072
	c0.005,0.005,0.007,0.012,0.011,0.017c0.003,0.001,0.003,0.003,0.004,0.005c0.238,0.268,0.17,0.768-0.199,0.904
	c-0.185,0.105-0.412,0.102-0.59-0.123c-0.002-0.002-0.003-0.004-0.004-0.006c-0.01-0.011-0.016-0.025-0.024-0.037
	c-0.022-0.033-0.045-0.066-0.066-0.1c-0.928,0.652-2.606,0.072-3.909-0.279c0.067,0.489,0.206,0.962,0.43,1.416
	c0.202,0.463-0.129,0.876-0.57,0.814c-0.002,0.308-0.064,0.63-0.212,0.958c-2.111,4.691-5.179,9.987-9.609,13.032
	c2.839,6.326-0.229,12.812-0.092,19.933c0.018,0.836-0.201,1.511-0.556,2.063v0.934c0.129,0.165,0.232,0.347,0.309,0.543
	c0.121,0.171,0.227,0.352,0.299,0.553c0.14,0.167,0.276,0.339,0.387,0.53c0.469,0.818,0.307,1.809-0.216,2.505
	c-0.666,1.941,0.417,4.696,0.473,6.697c0.025,0.942-0.083,1.737-0.271,2.456c0.089,0.239,0.143,0.495,0.132,0.764
	c-0.023,0.643-0.159,1.234-0.369,1.79c0.055,0.492-0.049,1.057-0.43,1.41c-0.014,0.013-0.032,0.021-0.048,0.035
	c-0.755,1.624-2.143,2.981-3.781,3.667c-0.143,0.208-0.312,0.405-0.547,0.574c-1.356,0.971-3.01,0.947-4.538,0.432
	c-0.847-0.284-2.019-1.103-3.08-1.411c-0.033,0.183-0.069,0.358-0.097,0.552c-0.33,2.342-1.188,4.246-2.884,5.89
	c-2.224,2.158-5.512,1.003-6.502-1.715c-1.116-3.065-4.349-4.22-5.188-7.412c-0.695-2.644,1.101-5.458,3.714-6.016
	c0.426-0.091,0.846-0.104,1.265-0.087c-0.1-1.012-0.145-2.025-0.13-3.042c-0.026-1.789,0.548-3.738,1.287-5.338
	c0.516-1.114,1.685-2.505,2.188-3.849c-0.231-0.33-0.425-0.69-0.543-1.12c-0.008-0.026-0.007-0.054-0.015-0.08
	c-0.567-0.501-0.955-1.164-1.143-1.896c-0.779-1.446-1.323-3.02-1.729-4.648c-0.419-0.352-0.838-0.704-1.256-1.057
	c-0.392-0.333-0.785-0.665-1.178-0.995c-0.222-0.154-0.399-0.352-0.549-0.577c-0.026-0.026-0.059-0.061-0.103-0.111
	c-0.253-0.265-0.586-0.465-0.815-0.751c-0.26-0.326-0.468-0.634-0.675-0.99c-0.066-0.115-0.612-0.949-0.176-0.399
	c-0.493-0.619-0.709-1.372-0.557-2.081c-0.227-0.175-0.36-0.426-0.401-0.707c-0.038-0.109-0.065-0.226-0.065-0.363v-0.185
	c0-0.207,0.055-0.375,0.134-0.522c-0.169-0.314-0.282-0.668-0.318-1.048c-0.196-2.047-0.683-4.054-1.032-6.078
	c-0.034-0.198-0.041-0.394-0.036-0.588c-0.193-0.561-0.366-1.133-0.46-1.748c-0.043-0.286-0.052-0.556-0.047-0.82
	c-0.343-0.233-0.56-0.641-0.423-1.163c0.355-1.353,0.332-2.761,0.332-4.151c0-0.091,0.031-0.159,0.049-0.239
	c-0.002-0.009-0.008-0.012-0.009-0.021c-0.31-2.007-0.817-3.967-1.306-5.934c-0.474-0.857-0.774-1.824-0.923-2.785
	c-0.134-0.858,0.005-1.51,0.361-2.021c-0.063-0.25-0.102-0.505-0.135-0.76c-0.01-0.027-0.028-0.046-0.036-0.075
	c-0.317-1.161-0.763-3.03-0.806-4.739c-0.579-0.356-1.188-0.713-1.832-0.804c-0.609,0.374-1.3,0.631-2.071,0.782
	C334.783,130.545,334.315,129.92,334.754,129.516z"/>
<rect x="98.078" y="226.761" fill="none" width="515.383" height="56.019"/>
<text transform="matrix(1 0 0 1 98.0781 248.6006)" display="none" fill="#CC0000" font-family="'ArialRoundedMTBold'" font-size="30" letter-spacing="2">International Pre-School</text>
<path fill="#FFB6B6" d="M841.262,182.186c-0.01-0.014-0.02-0.028-0.028-0.042c-0.307-0.829-0.663-2.136-1.795-1.927
	c-0.015,0.003-0.028,0.007-0.043,0.011c-0.038-0.118-0.081-0.236-0.13-0.356c-0.179-0.454-0.271-0.922-0.421-1.384
	c-0.371-1.149-0.92-2.282-1.365-3.409c-0.081-0.204-0.261-0.292-0.436-0.294c-0.021-0.015-0.044-0.03-0.066-0.045
	c-0.453-0.287-1.061-0.263-1.591-0.19c-0.059-0.032-0.128-0.052-0.21-0.052c-0.036,0-0.069,0.003-0.102,0.011
	c-0.137-0.345-0.287-0.685-0.444-1.021c0.004-0.053-0.002-0.112-0.021-0.175c-0.23-0.711-0.681-1.319-0.921-2.023
	c-0.014-0.044-0.035-0.082-0.059-0.116c-0.008-0.105-0.043-0.191-0.1-0.256c0.02-0.088,0.012-0.186-0.032-0.286
	c-0.34-0.75-0.692-1.495-1.031-2.245c-0.017-0.039-0.038-0.071-0.062-0.099c-0.195-0.703-0.432-1.392-0.784-2.035
	c-0.017-0.03-0.034-0.055-0.055-0.079c0.009-0.274-0.244-0.55-0.555-0.455c-0.081,0.024-0.161,0.054-0.24,0.086
	c-0.216,0.032-0.438,0.085-0.613,0.197c-0.088,0.009-0.161,0.039-0.218,0.084c-0.451,0.084-0.816,0.299-1.233,0.563
	c-0.017,0.01-0.033,0.02-0.051,0.03c-0.052,0.012-0.104,0.027-0.159,0.048c-1.484,0.556-2.914,1.252-4.414,1.766
	c-0.127,0.043-0.236,0.101-0.33,0.169c-0.443,0.166-0.884,0.333-1.322,0.507c-1.402,0.558-2.794,1.15-4.188,1.728
	c-0.574,0.238-1.18,0.374-1.761,0.595c-0.244,0.093-0.464,0.2-0.676,0.341c-0.938-0.352-1.8-0.955-2.807-1.046
	c0.143-0.084,0.261-0.178,0.333-0.272c0.326-0.419,0.096-0.765-0.384-0.828c-0.483-0.064-1,0.067-1.478,0.143
	c-0.036-0.047-0.084-0.088-0.137-0.12c-0.074-0.043-0.154-0.063-0.232-0.066c-0.199-0.178-0.414-0.313-0.71-0.333
	c-0.073-0.105-0.187-0.181-0.316-0.21c-0.214-0.188-0.459-0.35-0.741-0.4c-0.071-0.012-0.143-0.013-0.21-0.003
	c-0.081-0.024-0.166-0.043-0.258-0.052c-0.614-0.055-1.228,0.288-1.83,0.375c-0.785,0.112-1.538,0.472-2.259,0.79
	c-0.694,0.307-1.318,0.73-1.75,1.287c-0.016-0.018-0.032-0.036-0.051-0.053c0-0.015,0.003-0.028,0.002-0.044
	c-0.024-0.555-0.238-0.919-0.472-1.403c-0.075-0.156-0.172-0.273-0.281-0.358c-0.064-0.643-0.206-1.272-0.479-1.866
	c-0.257-0.562-0.622-1.016-1.078-1.43c-0.296-0.268-0.937-0.645-0.966-1.088c-0.007-0.115-0.032-0.221-0.067-0.319
	c0.515-0.153,0.985-0.386,1.421-0.673c0.003,0.001,0.003,0.003,0.006,0.004c0.396,0.284,1.024,0.316,1.554,0.17
	c0.031,0.008,0.065,0.012,0.105,0.008c0.666-0.071,1.092-0.628,1.256-1.241c0.164-0.034,0.32-0.086,0.463-0.158
	c0.004,0,0.006,0.001,0.01,0.001c0.012,0,0.021-0.003,0.032-0.004c0.014,0.001,0.026,0.004,0.042,0.004
	c0.128,0,0.211-0.068,0.253-0.157c0.197-0.044,0.26-0.27,0.183-0.426c0.009-0.025,0.019-0.052,0.024-0.08
	c0.018-0.077,0.026-0.156,0.03-0.234c0.437-0.183,0.851-0.333,0.997-0.825c0.042-0.141,0.051-0.284,0.038-0.427
	c0.489,0.098,0.957-0.115,1.242-0.532c0.129-0.188,0.113-0.443,0.062-0.649c-0.032-0.125-0.26-0.311-0.381-0.471
	c0.007-0.029,0.007-0.058,0.006-0.087c0.005-0.016,0.009-0.032,0.011-0.049c0.076-0.597,0.041-1.198,0.207-1.777
	c0.004-0.008,0.007-0.017,0.009-0.025c0.05,0.001,0.101-0.01,0.153-0.042c0.712-0.419,1.349-0.9,1.711-1.634
	c0.041-0.013,0.08-0.036,0.116-0.067c0.258-0.234,0.388-0.524,0.488-0.848c0.044,0.006,0.089,0.004,0.132-0.008
	c-0.075,0.299-0.146,0.6-0.198,0.903c-0.033,0.186,0.252,0.265,0.283,0.078c0.001-0.002,0.001-0.005,0.003-0.007
	c0.063,0.006,0.126-0.022,0.145-0.103c0.021-0.037,0.041-0.074,0.062-0.11c0.031-0.003,0.062-0.016,0.085-0.046
	c0.604-0.748,1.077-1.637,0.904-2.613c0.112,0.106,0.25,0.192,0.367,0.299c0.054,0.421-0.004,0.841-0.034,1.266
	c-0.051,0.007-0.1,0.036-0.122,0.097c-0.163,0.44-0.366,0.95-0.733,1.259c-0.146,0.123,0.062,0.329,0.207,0.208
	c0.029-0.025,0.057-0.052,0.084-0.079c0.063,0.052,0.171,0.062,0.233-0.025c0.213-0.296,0.438-0.594,0.53-0.955
	c0.009-0.036,0.003-0.067-0.01-0.093c0.036-0.016,0.069-0.045,0.084-0.09c0.321-1.044,0.531-2.213,0.086-3.248
	c0.028-0.008,0.051-0.021,0.07-0.039c0.008,0.002,0.017,0.002,0.023,0.003c0.31,0.444,0.513,0.926,0.686,1.433
	c0.021,0.133,0.03,0.27,0.021,0.413c-0.01,0.19,0.284,0.189,0.295,0c0-0.008,0-0.017,0-0.025c0.055-0.029,0.093-0.084,0.069-0.161
	c-0.033-0.1-0.065-0.199-0.1-0.298c-0.096-0.556-0.388-1.045-0.615-1.577c-0.022-0.055-0.064-0.074-0.106-0.075
	c-0.004-0.012-0.008-0.024-0.015-0.035c-0.102-0.206-0.231-0.392-0.372-0.57c-0.076-0.157-0.15-0.316-0.253-0.461
	c-0.159-0.225-0.374-0.403-0.589-0.579c-0.121-0.553-0.345-1.103-0.654-1.618c-0.541-0.896-1.33-1.672-2.134-2.331
	c-0.444-0.363-0.906-0.705-1.368-1.043c-0.046-0.034-0.083-0.06-0.112-0.081c-0.026-0.026-0.068-0.064-0.128-0.118
	c-0.167-0.151-0.321-0.317-0.477-0.48c-0.73-0.762-1.406-1.479-2.252-2.119c-0.919-0.696-2.252-0.934-3.375-0.934
	c-0.698,0-1.381,0.125-2.036,0.342c-0.229-0.066-0.49-0.053-0.759,0.087c-0.438,0.228-0.932,0.322-1.331,0.622
	c-0.373,0.281-0.651,0.593-1.078,0.787c-0.223,0.101-0.386,0.257-0.515,0.44c-0.096-0.653-0.523-1.321-0.715-1.822
	c-0.165-0.434-0.5-0.756-0.993-0.756c-0.412,0-0.911,0.302-0.989,0.739c-0.329,0.215-0.634,0.467-0.881,0.775
	c-0.021,0.026-0.03,0.054-0.033,0.082c-0.106,0.088-0.208,0.181-0.296,0.287c-0.109,0.13-0.192,0.274-0.243,0.425
	c-0.166,0.1-0.29,0.249-0.367,0.419c-0.265,0.197-0.396,0.522-0.395,0.848c-0.075-0.004-0.149,0.041-0.145,0.14
	c0.002,0.033,0.004,0.066,0.004,0.099c-0.003,0.137-0.046,0.238-0.188,0.326c-0.144,0.09-0.041,0.301,0.098,0.273
	c0.02,0.036,0.051,0.062,0.1,0.069c0.01,0.052,0.03,0.101,0.067,0.146c0.046,0.056,0.134,0.052,0.189,0.012
	c0.153,0.143,0.35,0.252,0.525,0.36c0.2,0.123,0.292,0.248,0.327,0.438c-0.045,0.013-0.09,0.027-0.136,0.04
	c-0.301-0.007-0.599-0.025-0.9,0.016c-0.072,0.01-0.147,0.026-0.224,0.044c-0.056-0.036-0.123-0.058-0.193-0.058h-0.036
	c-0.129,0-0.243,0.069-0.31,0.172c-0.086,0.007-0.171,0.005-0.255-0.011c-0.138-0.028-0.251,0.015-0.331,0.091
	c-0.511,0.057-0.961,0.463-1.261,0.988c-0.613,0.486-0.994,1.22-1.174,1.971c-0.001,0.002-0.001,0.003-0.001,0.005
	c-0.41,0.803-0.696,1.649-0.681,2.597c0,0.016,0.004,0.029,0.005,0.043c-0.031,0.097-0.039,0.205-0.022,0.314
	c0.06,0.414,0.021,0.845,0.018,1.261c0,0.065,0.01,0.124,0.028,0.176c-0.045,0.033-0.07,0.091-0.059,0.158
	c0.044,0.297,0.153,0.569,0.271,0.845c0.012,0.027,0.028,0.043,0.046,0.056c0.083,0.232,0.227,0.452,0.382,0.636
	c0.103,0.121,0.274-0.01,0.246-0.143c-0.077-0.367-0.368-0.638-0.354-1.029c0.002-0.032,0-0.062-0.002-0.09
	c0.014-0.031,0.029-0.062,0.048-0.091c0.005-0.01,0.007-0.019,0.011-0.028c0.007-0.001,0.016-0.005,0.025-0.007
	c0.065,0.028,0.133,0.049,0.204,0.059c0.058,0.124,0.134,0.239,0.228,0.345c-0.014,0.049-0.006,0.103,0.036,0.139
	c0.301,0.255,0.51,0.591,0.81,0.846c0.292,0.248,0.642,0.449,0.986,0.612c0.143,0.067,0.312-0.113,0.18-0.231
	c-0.152-0.136-0.32-0.254-0.483-0.375c-0.005-0.023-0.014-0.046-0.033-0.066c-0.266-0.277-0.488-0.585-0.683-0.911
	c0.007-0.381-0.11-0.766-0.203-1.142c0.185,0.217,0.337,0.466,0.531,0.678c0.088,0.097,0.25,0.021,0.25-0.104
	c0.002-0.196,0.074-0.349,0.167-0.495c0.074,0.137,0.174,0.264,0.283,0.381c0.231,0.278,0.525,0.495,0.909,0.624
	c0.085,0.028,0.197-0.049,0.188-0.142c-0.032-0.279-0.172-0.46-0.354-0.668c-0.305-0.344-0.318-0.733-0.331-1.146
	c0.015-0.021,0.025-0.041,0.038-0.061c0.013-0.019,0.02-0.039,0.023-0.057c0.069,0.031,0.133,0.065,0.194,0.104
	c-0.017,0.032-0.023,0.07-0.014,0.109c0.025,0.118,0.152,0.177,0.246,0.24c0.125,0.084,0.257,0.157,0.379,0.245
	c0.134,0.095,0.256-0.082,0.201-0.202c-0.13-0.283-0.291-0.552-0.468-0.81c0.01-0.034,0.01-0.072-0.011-0.11
	c-0.199-0.384-0.132-0.833-0.127-1.25c0-0.01-0.003-0.017-0.005-0.026c0.047-0.286,0.145-0.54,0.376-0.669
	c0.029-0.021,0.055-0.043,0.079-0.068c0.001,0.001,0.003,0.002,0.004,0.003c0.03,0.216,0.059,0.431,0.063,0.65
	c0.001,0.088,0.065,0.134,0.135,0.14c0.002,0.165-0.002,0.331,0.011,0.485c0.017,0.188,0.311,0.189,0.295,0
	c-0.021-0.261-0.006-0.545-0.036-0.817c0.014-0.016,0.026-0.036,0.031-0.063c0.036-0.181,0.075-0.358,0.14-0.531
	c0.029-0.026,0.057-0.057,0.073-0.095c0.039-0.09,0.062-0.18,0.074-0.272c0.023-0.012,0.045-0.021,0.067-0.033
	c0.255-0.137,0.551-0.276,0.766-0.48c0.03,0.007,0.063,0.011,0.1,0.011c0.279-0.008,0.614-0.097,0.806,0.149
	c0.037,0.047,0.079,0.078,0.122,0.097c-0.848,1.037-1.398,2.185-1.501,3.584c-0.112,1.509,0.679,3.022,1.325,4.324
	c0.149,0.299,0.37,0.537,0.631,0.716c-0.157,0.655-0.271,1.318-0.404,1.979c-0.14,0.703-0.269,1.159-0.474,1.561
	c-0.238,0.016-0.472,0.046-0.698,0.096c-0.079-0.01-0.164-0.003-0.258,0.026c-0.888,0.282-1.705,0.866-2.082,1.742
	c-0.03,0.074-0.053,0.15-0.062,0.225c-0.017,0.023-0.032,0.046-0.049,0.069c-0.079,0.114-0.106,0.227-0.101,0.331
	c-0.493,1.084-0.498,2.231-0.494,3.425c0,0.058,0.01,0.108,0.024,0.156c-0.031,0.123-0.057,0.248-0.08,0.373
	c-0.049,0.056-0.092,0.123-0.129,0.203c-0.425,0.945-0.571,1.936-0.555,2.944c-0.559,1.246,0.122,2.695,0.15,4.054v0.181
	c0,0.254,0.094,0.444,0.236,0.575C788,177,788,180,788.955,182.191c0.021,0.19,0.047,0.382,0.077,0.574s0.065,0.384,0.108,0.575
	s0.093,0.379,0.151,0.563C790,186,791,189,791.39,192.2c-0.003,0.22,0.044,0.446,0.153,0.621c0.017,0.197,0.072,0.384,0.173,0.559
	c0.032,0.053,0.067,0.102,0.105,0.15c0.059,0.295,0.188,0.57,0.323,0.838c0.063,0.122,0.136,0.238,0.206,0.354
	c0.039,0.064,0.268,0.53,0.132,0.195c0.218,0.539,0.454,0.997,0.863,1.313c0.158,0.399,0.496,0.742,0.892,0.812
	c0.573,0.103,1.282,0.167,1.865-0.011c0.511,0.167,1.13,0.107,1.651,0.096c0.662-0.015,1.326,0,1.987,0
	c0.141,0,0.267-0.021,0.385-0.054c0.118,0.033,0.247,0.054,0.388,0.054c0.06,0,0.117-0.005,0.172-0.011
	c0.116,0.031,0.243,0.048,0.38,0.047c1.157-0.008,2.308-0.1,3.461-0.169c1.154-0.07,2.292,0.025,3.443,0.006
	c2.132-0.035,4.27,0.168,6.411,0.132c1.031-0.017,2.135,0.082,3.063-0.179c0.058,0.016,0.118,0.027,0.18,0.026
	c0.233-0.007,0.423-0.065,0.63-0.165c0.148-0.07,0.262-0.241,0.304-0.396c0.008-0.029,0.012-0.06,0.016-0.09
	c0.263-0.251,0.486-0.579,0.659-1.01c0.105-0.261,0.149-0.516,0.149-0.766c0.22-0.085,0.411-0.227,0.546-0.426
	c0.284-0.1,0.575-0.177,0.862-0.262c0.653-0.193,1.242-0.525,1.742-0.987c0.071-0.065,0.133-0.134,0.19-0.207
	c0.018,0,0.035,0.002,0.054,0.002c0.119-0.003,0.233-0.016,0.344-0.038c-0.805,1.054-1.637,2.066-2.112,3.319
	c-0.58,1.526-0.276,2.981-0.291,4.556c-0.002,0.094,0.006,0.182,0.019,0.266c-0.144,0.149-0.258,0.32-0.336,0.506
	c-0.084,0.067-0.166,0.138-0.246,0.211c-0.367,0.337-0.546,0.888-0.678,1.35c-0.156,0.542-0.374,1.07-0.412,1.598
	c-0.127,0.146-0.212,0.31-0.266,0.479c-0.113,0.065-0.215,0.172-0.29,0.334c-0.19,0.404-0.476,1.118-0.638,1.857
	c-0.53,0.848-1.043,1.709-1.737,2.431c-0.04,0.041-0.073,0.085-0.103,0.128c-0.322,0.233-0.581,0.528-0.797,0.906
	c-0.277,0.486-0.424,1.034-0.7,1.521c-0.063,0.113-0.095,0.224-0.105,0.33c-0.022,0.018-0.043,0.038-0.06,0.06
	c-0.064-0.002-0.133,0.018-0.203,0.07c-0.071,0.054-0.13,0.1-0.186,0.168c-0.129,0.161-0.149,0.361,0,0.521
	c0.317,0.338,0.755,0.465,1.183,0.611c0.542,0.188,0.944,0.619,1.471,0.844c-0.067,0.051-0.13,0.115-0.186,0.194
	c-0.114,0.161-0.198,0.329-0.257,0.499c-0.013,0.019-0.024,0.037-0.036,0.056c-0.193,0.265-0.423,0.483-0.55,0.82
	c-0.211,0.565,0.191,1.175,0.532,1.579c0.822,0.979,2.022,1.626,3.187,2.099c0.06,0.024,0.117,0.041,0.173,0.051
	c0.245,0.139,0.519,0.24,0.774,0.332c0.313,0.117,0.646,0.21,0.977,0.311c0.144,0.119,0.333,0.19,0.536,0.218
	c-0.234-0.03,0.073,0.071,0.019,0.033c0.082,0.041,0.16,0.087,0.238,0.133c0.199,0.114,0.408,0.225,0.632,0.284
	c0.041,0.011,0.083,0.019,0.123,0.021c0.387,0.294,0.899,0.543,1.312,0.604c0.316,0.046,0.688-0.109,0.896-0.361
	c0.168-0.148,0.276-0.366,0.276-0.604c0-0.017,0-0.033,0.001-0.05c0.003-0.009,0.004-0.021,0.007-0.03
	c0.026-0.083,0.036-0.168,0.031-0.251c0.101-0.207,0.066-0.464,0.239-0.642c0.295-0.308,0.33-0.845,0-1.145
	c-0.485-0.442-1.077-0.683-1.591-1.068c0.021-0.089,0.025-0.186,0.003-0.284c-0.007-0.12-0.046-0.242-0.125-0.361
	c-0.224-0.333-0.068-0.883-0.084-1.271c-0.019-0.463-0.153-0.911-0.174-1.374c-0.046-1.04,0.013-2.091,0.008-3.134
	c0.017-0.046,0.029-0.094,0.037-0.146c0.035-0.243,0.062-0.469,0.147-0.699c0.02-0.057,0.034-0.11,0.042-0.163
	c0.286-0.558,0.517-1.007,0.398-1.666c-0.005-0.032-0.014-0.062-0.023-0.091c0.606-0.709,0.854-1.572,1.251-2.41
	c0.053-0.115,0.094-0.234,0.123-0.354c0.077-0.04,0.143-0.11,0.174-0.218c0.104-0.348,0.462-0.572,0.457-0.971
	c-0.002-0.031-0.006-0.064-0.009-0.096c0.073-0.138,0.044-0.309-0.063-0.432c-0.099-0.111-0.218-0.2-0.34-0.284
	c-0.012-0.006-0.023-0.014-0.033-0.021c-0.009-0.071-0.035-0.133-0.076-0.185c0.462-0.783,0.851-1.586,1.185-2.433
	c0.35-0.888,0.872-1.69,1.16-2.607c0.023-0.079,0.04-0.156,0.052-0.231c0.205-0.364,0.354-0.756,0.535-1.146
	c0.054-0.117,0.094-0.235,0.125-0.356c0.165-0.29,0.312-0.605,0.448-0.919c0.387-0.879,0.803-1.809,1.001-2.767
	c0.144-0.231,0.258-0.479,0.304-0.762l0.028-0.212c0.212-0.452,0.379-0.889,0.489-1.28c0.085-0.123,0.153-0.255,0.199-0.393
	c0.004-0.011,0.008-0.021,0.012-0.033c0.068-0.204,0.075-0.414,0.038-0.617c0.109-0.38,0.075-0.802-0.143-1.138
	c-0.171-0.264-0.308-0.546-0.478-0.81c-0.054-0.081-0.11-0.152-0.171-0.217c-0.055-0.107-0.122-0.206-0.202-0.295
	c-0.055-0.118-0.113-0.235-0.182-0.347c-0.397-0.655-0.953-1.246-1.568-1.717c-0.009-0.104-0.028-0.206-0.058-0.304
	c0.636-0.141,1.288-0.16,1.936-0.24c0.814-0.103,1.624-0.268,2.438-0.383c1.763-0.251,3.505-0.613,5.225-1.072
	c0.227,0.013,0.454,0.026,0.682,0c0.721-0.079,1.764-0.118,2.369-0.556C841.286,182.657,841.408,182.397,841.262,182.186z
	 M788.853,153.395c-0.031-0.018-0.066-0.035-0.097-0.055c0,0,0-0.001,0-0.002c-0.025-0.053-0.051-0.105-0.079-0.158
	C788.741,153.25,788.803,153.319,788.853,153.395z M791.825,147.124c-0.122-0.069-0.329-0.133-0.301-0.302
	c0.09-0.545,0.448-0.006,0.453,0.262c0,0.048,0.012,0.094,0.029,0.134c0.003,0.008,0.005,0.017,0.007,0.025
	C791.954,147.202,791.892,147.161,791.825,147.124z M810.801,172.474c0.013-0.107,0.017-0.227,0.008-0.351
	c0.137,0.001,0.273-0.041,0.372-0.131c0.311-0.282,1.026,0.075,1.34,0.206c0.347,0.144,0.696,0.283,1.046,0.42
	c-0.753,0.224-1.472,0.574-2.143,0.982c-0.085-0.116-0.182-0.227-0.291-0.338c-0.177-0.181-0.277-0.281-0.319-0.418
	c0.008-0.046,0.01-0.095,0.004-0.15c-0.008-0.064-0.013-0.128-0.02-0.193C810.8,172.491,810.8,172.483,810.801,172.474z
	 M808.438,178.34c-1.02,0.188-1.988,0.625-2.914,1.081c0.028-0.876-0.042-1.776-0.042-2.643c0-0.13-0.019-0.249-0.051-0.356
	c0.05-0.04,0.1-0.084,0.147-0.136c0.409-0.444,0.707-0.97,1.066-1.452c0.322-0.432,0.589-0.917,0.77-1.429
	c0.136-0.15,0.274-0.298,0.418-0.44c0.049-0.047,0.1-0.093,0.149-0.137c0.362,0.412,0.813,0.671,1.27,0.985
	c0.16,0.111,0.317,0.216,0.472,0.317c0.021,0.044,0.05,0.085,0.086,0.121c-0.218,0.097-0.438,0.2-0.673,0.208
	c-0.38,0.014-0.454,0.49-0.222,0.667c0.015,0.167,0.086,0.327,0.222,0.427c0.241,0.683,0.441,1.377,0.647,2.071
	C809.351,177.925,808.948,178.246,808.438,178.34z M811.406,185.103c-0.074-0.01-0.147-0.019-0.226-0.025
	c-0.448-0.037-0.927,0.107-1.319,0.358c-0.194-0.258-0.468-0.458-0.787-0.546c-0.077-0.021-0.153-0.034-0.231-0.042
	c-0.017-0.016-0.033-0.033-0.051-0.047c-0.003-0.004-0.006-0.006-0.01-0.009l0.032-0.077c0.015-0.054,0.023-0.106,0.032-0.161
	c0.041-0.104,0.063-0.217,0.077-0.33c0.048-0.033,0.091-0.067,0.133-0.105c0.197-0.134,0.349-0.314,0.448-0.522
	c0.078-0.084,0.153-0.17,0.228-0.26c0.157-0.186,0.315-0.369,0.483-0.545c0.089-0.075,0.134-0.117,0.138-0.125
	c0.165-0.002,0.315-0.027,0.451-0.069c-0.105,0.909,0.032,1.783,0.632,2.32C811.425,184.978,811.416,185.041,811.406,185.103z
	 M813.336,177.654c0.032-0.053,0.064-0.106,0.1-0.158c0.052-0.079,0.129-0.146,0.221-0.208
	C813.547,177.408,813.44,177.53,813.336,177.654z"/>
</svg>
